<svg width="1107" height="1044" viewBox="0 0 1107 1044" fill="none" xmlns="http://www.w3.org/2000/svg">
<rect width="1107" height="1044" fill="white"/>
<g clip-path="url(#clip0_839_2986)">
<rect x="32" y="69" width="416" height="896" rx="40" fill="white"/>
<path fill-rule="evenodd" clip-rule="evenodd" d="M372.184 101H373.184C373.736 101 374.184 101.448 374.184 102V108C374.184 108.552 373.736 109 373.184 109H372.184C371.631 109 371.184 108.552 371.184 108V102C371.184 101.448 371.631 101 372.184 101Z" fill="#C3C3C3"/>
<path fill-rule="evenodd" clip-rule="evenodd" d="M367.684 103H368.684C369.236 103 369.684 103.448 369.684 104V108C369.684 108.552 369.236 109 368.684 109H367.684C367.131 109 366.684 108.552 366.684 108V104C366.684 103.448 367.131 103 367.684 103Z" fill="#C3C3C3"/>
<path fill-rule="evenodd" clip-rule="evenodd" d="M363.184 104.5H364.184C364.736 104.5 365.184 104.948 365.184 105.5V108C365.184 108.552 364.736 109 364.184 109H363.184C362.631 109 362.184 108.552 362.184 108V105.5C362.184 104.948 362.631 104.5 363.184 104.5Z" fill="#C3C3C3"/>
<path fill-rule="evenodd" clip-rule="evenodd" d="M376.684 99H377.684C378.236 99 378.684 99.4477 378.684 100V108C378.684 108.552 378.236 109 377.684 109H376.684C376.131 109 375.684 108.552 375.684 108V100C375.684 99.4477 376.131 99 376.684 99Z" fill="#DEDEDE"/>
<path fill-rule="evenodd" clip-rule="evenodd" d="M372.184 101H373.184C373.736 101 374.184 101.448 374.184 102V108C374.184 108.552 373.736 109 373.184 109H372.184C371.631 109 371.184 108.552 371.184 108V102C371.184 101.448 371.631 101 372.184 101Z" fill="#262626"/>
<path fill-rule="evenodd" clip-rule="evenodd" d="M367.684 103H368.684C369.236 103 369.684 103.448 369.684 104V108C369.684 108.552 369.236 109 368.684 109H367.684C367.131 109 366.684 108.552 366.684 108V104C366.684 103.448 367.131 103 367.684 103Z" fill="#262626"/>
<path fill-rule="evenodd" clip-rule="evenodd" d="M363.184 104.5H364.184C364.736 104.5 365.184 104.948 365.184 105.5V108C365.184 108.552 364.736 109 364.184 109H363.184C362.631 109 362.184 108.552 362.184 108V105.5C362.184 104.948 362.631 104.5 363.184 104.5Z" fill="#262626"/>
<path d="M392.316 105.939C392.955 105.939 393.576 106.107 394.124 106.428L394.346 106.558C394.514 106.656 394.544 106.887 394.406 107.024L392.512 108.913C392.395 109.029 392.207 109.029 392.09 108.913L390.208 107.036C390.071 106.899 390.1 106.67 390.266 106.571L390.486 106.441C391.038 106.112 391.668 105.939 392.316 105.939Z" fill="#262626"/>
<path d="M392.316 102.47C393.907 102.47 395.435 102.997 396.679 103.975L396.855 104.113C396.995 104.223 397.007 104.431 396.881 104.556L395.75 105.684C395.646 105.788 395.48 105.8 395.362 105.712L395.224 105.61C394.383 104.985 393.37 104.65 392.316 104.65C391.256 104.65 390.237 104.989 389.394 105.621L389.256 105.724C389.137 105.813 388.971 105.802 388.866 105.697L387.736 104.57C387.61 104.444 387.622 104.237 387.761 104.127L387.936 103.989C389.183 103.003 390.718 102.47 392.316 102.47Z" fill="#262626"/>
<path d="M392.316 99C394.841 99 397.255 99.8906 399.166 101.523L399.329 101.662C399.461 101.775 399.469 101.976 399.346 102.098L398.219 103.222C398.11 103.331 397.935 103.338 397.817 103.24L397.678 103.123C396.173 101.865 394.287 101.18 392.316 101.18C390.339 101.18 388.447 101.869 386.94 103.135L386.8 103.253C386.682 103.352 386.507 103.345 386.398 103.236L385.271 102.112C385.148 101.99 385.156 101.789 385.287 101.676L385.45 101.537C387.363 99.8959 389.784 99 392.316 99Z" fill="#262626"/>
<path d="M428.184 102C428.736 102 429.184 102.448 429.184 103V105C429.184 105.552 428.736 106 428.184 106V102Z" fill="#A4A4A4"/>
<path fill-rule="evenodd" clip-rule="evenodd" d="M407.184 98H424.184C425.84 98 427.184 99.3431 427.184 101V107C427.184 108.657 425.84 110 424.184 110H407.184C405.527 110 404.184 108.657 404.184 107V101C404.184 99.3431 405.527 98 407.184 98ZM407.184 99C406.079 99 405.184 99.8954 405.184 101V107C405.184 108.105 406.079 109 407.184 109H424.184C425.288 109 426.184 108.105 426.184 107V101C426.184 99.8954 425.288 99 424.184 99H407.184Z" fill="#A4A4A4"/>
<rect x="406.184" y="100" width="19" height="8" rx="1" fill="#262626"/>
<path d="M57.8672 109.089C60.5552 109.089 62.1519 106.987 62.1519 103.427C62.1519 102.087 61.8955 100.959 61.4048 100.087C60.6943 98.7324 59.4712 98 57.9258 98C55.626 98 54 99.5454 54 101.713C54 103.75 55.4648 105.229 57.479 105.229C58.7168 105.229 59.7202 104.65 60.2183 103.647H60.2402C60.2402 103.647 60.2695 103.647 60.2769 103.647C60.2915 103.647 60.3428 103.647 60.3428 103.647C60.3428 106.064 59.4272 107.507 57.8818 107.507C56.9736 107.507 56.2705 107.009 56.0288 106.21H54.1465C54.4614 107.946 55.9336 109.089 57.8672 109.089ZM57.9331 103.728C56.7173 103.728 55.853 102.863 55.853 101.655C55.853 100.476 56.7612 99.5747 57.9404 99.5747C59.1196 99.5747 60.0278 100.49 60.0278 101.684C60.0278 102.863 59.1416 103.728 57.9331 103.728Z" fill="#262626"/>
<path d="M65.243 108.986C65.9388 108.986 66.4148 108.488 66.4148 107.829C66.4148 107.163 65.9388 106.672 65.243 106.672C64.5545 106.672 64.0711 107.163 64.0711 107.829C64.0711 108.488 64.5545 108.986 65.243 108.986ZM65.243 103.493C65.9388 103.493 66.4148 103.002 66.4148 102.343C66.4148 101.677 65.9388 101.186 65.243 101.186C64.5545 101.186 64.0711 101.677 64.0711 102.343C64.0711 103.002 64.5545 103.493 65.243 103.493Z" fill="#262626"/>
<path d="M73.2706 108.833H75.0797V106.862H76.5079V105.266H75.0797V98.2637H72.4137C70.546 101.076 69.0592 103.427 68.107 105.178V106.862H73.2706V108.833ZM69.8575 105.2C71.088 103.032 72.1866 101.296 73.1974 99.8018H73.2999V105.31H69.8575V105.2Z" fill="#262626"/>
<path d="M80.5365 108.833H82.4262V98.2637H80.5438L77.7826 100.197V102.014L80.412 100.168H80.5365V108.833Z" fill="#262626"/>
<rect x="89.5" y="650.5" width="299" height="51" rx="23.5" fill="#EBEBEB"/>
<rect x="89.5" y="650.5" width="299" height="51" rx="23.5" stroke="#C3C3C3"/>
<path d="M214.594 578.091C146.584 624.491 65.1939 580.758 33 553.091V649.5H448V429.591C347.897 294.091 299.606 520.091 214.594 578.091Z" fill="url(#paint0_linear_839_2986)"/>
<path d="M33 553.091C65.1939 580.758 146.584 624.491 214.594 578.091C299.606 520.091 347.897 294.091 448 429.591" stroke="#262626" stroke-width="2" stroke-linecap="round"/>
<path d="M288.547 492.5C288.547 494.98 286.523 497 284.014 497C281.504 497 279.48 494.98 279.48 492.5C279.48 490.02 281.504 488 284.014 488C286.523 488 288.547 490.02 288.547 492.5Z" fill="#858585" stroke="#262626" stroke-width="2"/>
<rect x="56" y="206" width="97" height="16" rx="8" fill="#262626"/>
<rect x="56" y="797" width="113" height="16" rx="8" fill="#262626"/>
<rect x="180" y="668" width="113" height="16" rx="8" fill="#262626"/>
<rect x="56" y="246" width="334" height="11" rx="5.5" fill="#262626"/>
<rect x="56" y="843" width="102" height="8" rx="4" fill="#262626"/>
<rect x="338" y="841" width="77" height="8" rx="4" fill="#262626"/>
<mask id="path-27-inside-1_839_2986" fill="white">
<path d="M32 865H448V969H32V865Z"/>
</mask>
<path d="M32 865H448V969H32V865Z" fill="white"/>
<path d="M32 866H448V864H32V866Z" fill="#EFEFF0" mask="url(#path-27-inside-1_839_2986)"/>
<path d="M67.0282 927.456V935.088H71.3242V936H66.0202V927.456H67.0282ZM73.2724 928.872H72.2524V927.696H73.2724V928.872ZM73.2484 936H72.2884V929.808H73.2484V936ZM77.5467 929.664C78.2307 929.664 78.7707 929.856 79.1547 930.228C79.5387 930.612 79.7307 931.14 79.7307 931.812V936H78.7707V931.908C78.7707 930.996 78.2907 930.528 77.3547 930.528C76.8987 930.528 76.5027 930.696 76.1667 931.032C75.8187 931.368 75.6507 931.86 75.6507 932.496V936H74.6907V929.808H75.6027V930.732C76.0707 930.024 76.7187 929.664 77.5467 929.664ZM86.4392 936H85.3232L83.2352 932.676L82.1312 933.708V936H81.1712V927.456H82.1312V932.58L84.9992 929.808H86.2712L83.9192 932.04L86.4392 936ZM91.4712 927.456H92.2872V936H91.2792V929.628H89.3352V928.836L89.5272 928.824C90.1272 928.788 90.5832 928.668 90.8832 928.464C91.1712 928.272 91.3752 927.936 91.4712 927.456Z" fill="#505050"/>
<path d="M145.729 927.456V935.088H150.025V936H144.721V927.456H145.729ZM151.974 928.872H150.954V927.696H151.974V928.872ZM151.95 936H150.99V929.808H151.95V936ZM156.248 929.664C156.932 929.664 157.472 929.856 157.856 930.228C158.24 930.612 158.432 931.14 158.432 931.812V936H157.472V931.908C157.472 930.996 156.992 930.528 156.056 930.528C155.6 930.528 155.204 930.696 154.868 931.032C154.52 931.368 154.352 931.86 154.352 932.496V936H153.392V929.808H154.304V930.732C154.772 930.024 155.42 929.664 156.248 929.664ZM165.14 936H164.024L161.936 932.676L160.832 933.708V936H159.872V927.456H160.832V932.58L163.7 929.808H164.972L162.62 932.04L165.14 936ZM169.176 935.088H173.688V936H168.048L168.072 935.532C168.12 934.836 168.276 934.224 168.552 933.72C168.816 933.216 169.284 932.784 169.932 932.4L171.012 931.776C171.552 931.464 171.936 931.152 172.164 930.84C172.392 930.54 172.512 930.168 172.512 929.736C172.512 929.268 172.356 928.896 172.056 928.608C171.756 928.32 171.348 928.176 170.82 928.176C169.62 928.176 169.032 928.788 169.032 930.012H168.036C168.024 929.148 168.264 928.464 168.768 927.984C169.26 927.504 169.956 927.264 170.844 927.264C171.648 927.264 172.308 927.492 172.812 927.948C173.316 928.428 173.568 929.016 173.568 929.736C173.568 930.84 172.92 931.776 171.624 932.52L170.712 933.048C170.184 933.372 169.8 933.684 169.572 933.984C169.332 934.284 169.2 934.656 169.176 935.088Z" fill="#262626"/>
<path d="M229.985 927.456V935.088H234.281V936H228.977V927.456H229.985ZM236.229 928.872H235.209V927.696H236.229V928.872ZM236.205 936H235.245V929.808H236.205V936ZM240.504 929.664C241.188 929.664 241.728 929.856 242.112 930.228C242.496 930.612 242.688 931.14 242.688 931.812V936H241.728V931.908C241.728 930.996 241.248 930.528 240.312 930.528C239.856 930.528 239.46 930.696 239.124 931.032C238.776 931.368 238.608 931.86 238.608 932.496V936H237.648V929.808H238.56V930.732C239.028 930.024 239.676 929.664 240.504 929.664ZM249.396 936H248.28L246.192 932.676L245.088 933.708V936H244.128V927.456H245.088V932.58L247.956 929.808H249.228L246.876 932.04L249.396 936ZM256.78 931.452C257.728 931.956 258.208 932.664 258.208 933.6C258.208 934.38 257.932 935.004 257.392 935.472C256.852 935.952 256.144 936.192 255.268 936.192C254.308 936.192 253.576 935.952 253.048 935.448C252.52 934.956 252.268 934.284 252.28 933.42H253.276C253.288 934.032 253.468 934.5 253.816 934.812C254.152 935.124 254.644 935.28 255.268 935.28C255.844 935.28 256.3 935.136 256.636 934.824C256.972 934.524 257.152 934.116 257.152 933.6C257.152 933.084 256.972 932.676 256.624 932.364C256.276 932.052 255.808 931.896 255.208 931.896H254.572V931.056H255.148C255.712 931.056 256.144 930.936 256.456 930.672C256.768 930.42 256.924 930.06 256.924 929.604C256.924 929.16 256.768 928.812 256.456 928.56C256.144 928.308 255.736 928.176 255.208 928.176C254.668 928.176 254.236 928.32 253.924 928.596C253.612 928.872 253.444 929.28 253.42 929.808H252.412C252.412 929.04 252.664 928.416 253.168 927.96C253.672 927.504 254.344 927.264 255.208 927.264C256.024 927.264 256.684 927.48 257.188 927.888C257.692 928.296 257.944 928.86 257.944 929.58C257.944 930.396 257.548 931.02 256.78 931.452Z" fill="#262626"/>
<path d="M380.683 927.456V935.088H384.979V936H379.675V927.456H380.683ZM386.927 928.872H385.907V927.696H386.927V928.872ZM386.903 936H385.943V929.808H386.903V936ZM391.201 929.664C391.885 929.664 392.425 929.856 392.809 930.228C393.193 930.612 393.385 931.14 393.385 931.812V936H392.425V931.908C392.425 930.996 391.945 930.528 391.009 930.528C390.553 930.528 390.157 930.696 389.821 931.032C389.473 931.368 389.305 931.86 389.305 932.496V936H388.345V929.808H389.257V930.732C389.725 930.024 390.373 929.664 391.201 929.664ZM400.093 936H398.977L396.889 932.676L395.785 933.708V936H394.825V927.456H395.785V932.58L398.653 929.808H399.925L397.573 932.04L400.093 936ZM406.002 930.432C406.914 930.432 407.622 930.708 408.138 931.236C408.642 931.776 408.906 932.472 408.906 933.312C408.906 934.152 408.63 934.848 408.102 935.376C407.55 935.928 406.83 936.192 405.942 936.192C405.126 936.192 404.442 935.964 403.914 935.484C403.374 935.028 403.086 934.404 403.038 933.624H404.046C404.094 934.14 404.286 934.548 404.646 934.836C404.994 935.136 405.426 935.28 405.942 935.28C406.494 935.28 406.95 935.1 407.31 934.74C407.67 934.38 407.85 933.9 407.85 933.312C407.85 932.736 407.67 932.256 407.31 931.896C406.95 931.536 406.494 931.344 405.942 931.344C405.102 931.344 404.514 931.692 404.19 932.376H403.254L403.974 927.456H408.39V928.368H404.79L404.382 931.056C404.838 930.648 405.378 930.432 406.002 930.432Z" fill="#505050"/>
<path d="M305.341 927.456V935.088H309.637V936H304.333V927.456H305.341ZM311.585 928.872H310.565V927.696H311.585V928.872ZM311.561 936H310.601V929.808H311.561V936ZM315.859 929.664C316.543 929.664 317.083 929.856 317.467 930.228C317.851 930.612 318.043 931.14 318.043 931.812V936H317.083V931.908C317.083 930.996 316.603 930.528 315.667 930.528C315.211 930.528 314.815 930.696 314.479 931.032C314.131 931.368 313.963 931.86 313.963 932.496V936H313.003V929.808H313.915V930.732C314.383 930.024 315.031 929.664 315.859 929.664ZM324.752 936H323.636L321.548 932.676L320.444 933.708V936H319.484V927.456H320.444V932.58L323.312 929.808H324.584L322.232 932.04L324.752 936ZM332.688 932.952H333.84V933.864H332.688V936H331.68V933.864H327.396V932.892L331.596 927.456H332.688V932.952ZM331.68 932.952V928.776L328.452 932.952H331.68Z" fill="#505050"/>
<circle cx="87" cy="899" r="12" fill="#505050"/>
<circle cx="165" cy="899" r="12" fill="#505050"/>
<circle cx="243" cy="899" r="12" fill="#262626"/>
<circle cx="321" cy="899" r="12" fill="#505050"/>
<circle cx="399" cy="899" r="12" fill="#505050"/>
<rect x="223" y="491" width="44" height="4" rx="2" fill="#262626"/>
<line x1="245.5" y1="424" x2="245.5" y2="469" stroke="#AD8634"/>
</g>
<rect x="30" y="67" width="420" height="900" rx="42" stroke="#262626" stroke-width="4"/>
<g clip-path="url(#clip1_839_2986)">
<rect x="659" y="69" width="416" height="896" rx="40" fill="white"/>
<path fill-rule="evenodd" clip-rule="evenodd" d="M999.184 101H1000.18C1000.74 101 1001.18 101.448 1001.18 102V108C1001.18 108.552 1000.74 109 1000.18 109H999.184C998.631 109 998.184 108.552 998.184 108V102C998.184 101.448 998.631 101 999.184 101Z" fill="#C3C3C3"/>
<path fill-rule="evenodd" clip-rule="evenodd" d="M994.684 103H995.684C996.236 103 996.684 103.448 996.684 104V108C996.684 108.552 996.236 109 995.684 109H994.684C994.131 109 993.684 108.552 993.684 108V104C993.684 103.448 994.131 103 994.684 103Z" fill="#C3C3C3"/>
<path fill-rule="evenodd" clip-rule="evenodd" d="M990.184 104.5H991.184C991.736 104.5 992.184 104.948 992.184 105.5V108C992.184 108.552 991.736 109 991.184 109H990.184C989.631 109 989.184 108.552 989.184 108V105.5C989.184 104.948 989.631 104.5 990.184 104.5Z" fill="#C3C3C3"/>
<path fill-rule="evenodd" clip-rule="evenodd" d="M1003.68 99H1004.68C1005.24 99 1005.68 99.4477 1005.68 100V108C1005.68 108.552 1005.24 109 1004.68 109H1003.68C1003.13 109 1002.68 108.552 1002.68 108V100C1002.68 99.4477 1003.13 99 1003.68 99Z" fill="#DEDEDE"/>
<path fill-rule="evenodd" clip-rule="evenodd" d="M999.184 101H1000.18C1000.74 101 1001.18 101.448 1001.18 102V108C1001.18 108.552 1000.74 109 1000.18 109H999.184C998.631 109 998.184 108.552 998.184 108V102C998.184 101.448 998.631 101 999.184 101Z" fill="#262626"/>
<path fill-rule="evenodd" clip-rule="evenodd" d="M994.684 103H995.684C996.236 103 996.684 103.448 996.684 104V108C996.684 108.552 996.236 109 995.684 109H994.684C994.131 109 993.684 108.552 993.684 108V104C993.684 103.448 994.131 103 994.684 103Z" fill="#262626"/>
<path fill-rule="evenodd" clip-rule="evenodd" d="M990.184 104.5H991.184C991.736 104.5 992.184 104.948 992.184 105.5V108C992.184 108.552 991.736 109 991.184 109H990.184C989.631 109 989.184 108.552 989.184 108V105.5C989.184 104.948 989.631 104.5 990.184 104.5Z" fill="#262626"/>
<path d="M1019.32 105.939C1019.96 105.939 1020.58 106.107 1021.12 106.428L1021.35 106.558C1021.51 106.656 1021.54 106.887 1021.41 107.024L1019.51 108.913C1019.4 109.029 1019.21 109.029 1019.09 108.913L1017.21 107.036C1017.07 106.899 1017.1 106.67 1017.27 106.571L1017.49 106.441C1018.04 106.112 1018.67 105.939 1019.32 105.939Z" fill="#262626"/>
<path d="M1019.32 102.47C1020.91 102.47 1022.43 102.997 1023.68 103.975L1023.85 104.113C1023.99 104.223 1024.01 104.431 1023.88 104.556L1022.75 105.684C1022.65 105.788 1022.48 105.8 1022.36 105.712L1022.22 105.61C1021.38 104.985 1020.37 104.65 1019.32 104.65C1018.26 104.65 1017.24 104.989 1016.39 105.621L1016.26 105.724C1016.14 105.813 1015.97 105.802 1015.87 105.697L1014.74 104.57C1014.61 104.444 1014.62 104.237 1014.76 104.127L1014.94 103.989C1016.18 103.003 1017.72 102.47 1019.32 102.47Z" fill="#262626"/>
<path d="M1019.32 99C1021.84 99 1024.26 99.8906 1026.17 101.523L1026.33 101.662C1026.46 101.775 1026.47 101.976 1026.35 102.098L1025.22 103.222C1025.11 103.331 1024.94 103.338 1024.82 103.24L1024.68 103.123C1023.17 101.865 1021.29 101.18 1019.32 101.18C1017.34 101.18 1015.45 101.869 1013.94 103.135L1013.8 103.253C1013.68 103.352 1013.51 103.345 1013.4 103.236L1012.27 102.112C1012.15 101.99 1012.16 101.789 1012.29 101.676L1012.45 101.537C1014.36 99.8959 1016.78 99 1019.32 99Z" fill="#262626"/>
<path d="M1055.18 102C1055.74 102 1056.18 102.448 1056.18 103V105C1056.18 105.552 1055.74 106 1055.18 106V102Z" fill="#A4A4A4"/>
<path fill-rule="evenodd" clip-rule="evenodd" d="M1034.18 98H1051.18C1052.84 98 1054.18 99.3431 1054.18 101V107C1054.18 108.657 1052.84 110 1051.18 110H1034.18C1032.53 110 1031.18 108.657 1031.18 107V101C1031.18 99.3431 1032.53 98 1034.18 98ZM1034.18 99C1033.08 99 1032.18 99.8954 1032.18 101V107C1032.18 108.105 1033.08 109 1034.18 109H1051.18C1052.29 109 1053.18 108.105 1053.18 107V101C1053.18 99.8954 1052.29 99 1051.18 99H1034.18Z" fill="#A4A4A4"/>
<rect x="1033.18" y="100" width="19" height="8" rx="1" fill="#262626"/>
<path d="M684.867 109.089C687.555 109.089 689.152 106.987 689.152 103.427C689.152 102.087 688.896 100.959 688.405 100.087C687.694 98.7324 686.471 98 684.926 98C682.626 98 681 99.5454 681 101.713C681 103.75 682.465 105.229 684.479 105.229C685.717 105.229 686.72 104.65 687.218 103.647H687.24C687.24 103.647 687.27 103.647 687.277 103.647C687.292 103.647 687.343 103.647 687.343 103.647C687.343 106.064 686.427 107.507 684.882 107.507C683.974 107.507 683.271 107.009 683.029 106.21H681.146C681.461 107.946 682.934 109.089 684.867 109.089ZM684.933 103.728C683.717 103.728 682.853 102.863 682.853 101.655C682.853 100.476 683.761 99.5747 684.94 99.5747C686.12 99.5747 687.028 100.49 687.028 101.684C687.028 102.863 686.142 103.728 684.933 103.728Z" fill="#262626"/>
<path d="M692.243 108.986C692.939 108.986 693.415 108.488 693.415 107.829C693.415 107.163 692.939 106.672 692.243 106.672C691.554 106.672 691.071 107.163 691.071 107.829C691.071 108.488 691.554 108.986 692.243 108.986ZM692.243 103.493C692.939 103.493 693.415 103.002 693.415 102.343C693.415 101.677 692.939 101.186 692.243 101.186C691.554 101.186 691.071 101.677 691.071 102.343C691.071 103.002 691.554 103.493 692.243 103.493Z" fill="#262626"/>
<path d="M700.271 108.833H702.08V106.862H703.508V105.266H702.08V98.2637H699.414C697.546 101.076 696.059 103.427 695.107 105.178V106.862H700.271V108.833ZM696.858 105.2C698.088 103.032 699.187 101.296 700.197 99.8018H700.3V105.31H696.858V105.2Z" fill="#262626"/>
<path d="M707.537 108.833H709.426V98.2637H707.544L704.783 100.197V102.014L707.412 100.168H707.537V108.833Z" fill="#262626"/>
<rect x="716.5" y="650.5" width="299" height="47" rx="23.5" fill="#4260DE"/>
<path d="M840.896 680H839.472L838.144 676.688H832.96L831.648 680H830.24L834.784 668.608H836.288L840.896 680ZM833.488 675.344L833.44 675.472H837.664L837.6 675.328C837.328 674.688 836.64 672.928 835.52 670.064C834.752 672.096 834.08 673.856 833.488 675.344ZM848.074 672.928V668.608H849.354V680H848.138V678.72C847.466 679.712 846.522 680.192 845.306 680.192C844.138 680.192 843.21 679.808 842.522 679.008C841.818 678.224 841.466 677.184 841.466 675.872C841.466 674.56 841.818 673.504 842.522 672.72C843.194 671.952 844.122 671.552 845.306 671.552C846.49 671.552 847.402 672.016 848.074 672.928ZM843.53 678.224C844.01 678.768 844.65 679.04 845.466 679.04C846.266 679.04 846.922 678.768 847.402 678.192C847.882 677.648 848.122 676.864 848.122 675.872C848.122 674.896 847.882 674.128 847.402 673.552C846.922 672.992 846.266 672.704 845.466 672.704C844.666 672.704 844.01 673.008 843.53 673.584C843.05 674.16 842.81 674.944 842.81 675.936C842.81 676.928 843.05 677.68 843.53 678.224ZM857.481 672.928V668.608H858.76V680H857.545V678.72C856.873 679.712 855.929 680.192 854.713 680.192C853.545 680.192 852.617 679.808 851.929 679.008C851.225 678.224 850.873 677.184 850.873 675.872C850.873 674.56 851.225 673.504 851.929 672.72C852.601 671.952 853.529 671.552 854.713 671.552C855.897 671.552 856.809 672.016 857.481 672.928ZM852.937 678.224C853.417 678.768 854.057 679.04 854.873 679.04C855.673 679.04 856.329 678.768 856.809 678.192C857.289 677.648 857.529 676.864 857.529 675.872C857.529 674.896 857.289 674.128 856.809 673.552C856.329 672.992 855.673 672.704 854.873 672.704C854.073 672.704 853.417 673.008 852.937 673.584C852.457 674.16 852.217 674.944 852.217 675.936C852.217 676.928 852.457 677.68 852.937 678.224ZM867.486 669.696H866.75C866.014 669.696 865.646 670.096 865.646 670.864V671.744H867.406V672.864H865.646V680H864.366V672.864H863.006V671.744H864.366V670.896C864.366 669.36 865.134 668.576 866.67 668.576C866.862 668.576 867.134 668.592 867.486 668.608V669.696ZM874.056 676.416V671.744H875.336V680H874.12V678.768C873.48 679.728 872.616 680.192 871.528 680.192C870.6 680.192 869.896 679.952 869.384 679.44C868.872 678.944 868.616 678.24 868.616 677.328V671.744H869.896V677.2C869.896 678.432 870.52 679.04 871.784 679.04C872.376 679.04 872.904 678.816 873.368 678.368C873.816 677.92 874.056 677.28 874.056 676.416ZM881.065 671.552C881.977 671.552 882.697 671.808 883.209 672.304C883.721 672.816 883.977 673.52 883.977 674.416V680H882.697V674.544C882.697 673.328 882.057 672.704 880.809 672.704C880.201 672.704 879.673 672.928 879.225 673.376C878.761 673.824 878.537 674.48 878.537 675.328V680H877.257V671.744H878.473V672.976C879.097 672.032 879.961 671.552 881.065 671.552ZM892.106 672.928V668.608H893.385V680H892.17V678.72C891.498 679.712 890.554 680.192 889.338 680.192C888.17 680.192 887.242 679.808 886.554 679.008C885.85 678.224 885.498 677.184 885.498 675.872C885.498 674.56 885.85 673.504 886.554 672.72C887.226 671.952 888.154 671.552 889.338 671.552C890.522 671.552 891.434 672.016 892.106 672.928ZM887.562 678.224C888.042 678.768 888.682 679.04 889.498 679.04C890.298 679.04 890.954 678.768 891.434 678.192C891.914 677.648 892.154 676.864 892.154 675.872C892.154 674.896 891.914 674.128 891.434 673.552C890.954 672.992 890.298 672.704 889.498 672.704C888.698 672.704 888.042 673.008 887.562 673.584C887.082 674.16 886.842 674.944 886.842 675.936C886.842 676.928 887.082 677.68 887.562 678.224ZM898.216 680.192C896.008 680.192 894.84 679.264 894.712 677.376H896.008C896.072 678 896.28 678.448 896.616 678.704C896.952 678.96 897.48 679.088 898.216 679.088C899.528 679.088 900.2 678.672 900.2 677.808C900.2 677.44 900.056 677.152 899.784 676.96C899.512 676.768 899.016 676.608 898.312 676.464L897.544 676.32C895.816 676 894.968 675.2 894.968 673.888C894.968 673.184 895.224 672.608 895.768 672.192C896.312 671.776 897.048 671.552 897.976 671.552C900.152 671.552 901.272 672.464 901.336 674.288H900.056C900.024 673.696 899.832 673.28 899.512 673.024C899.176 672.784 898.664 672.656 897.976 672.656C897.416 672.656 896.984 672.768 896.696 672.976C896.392 673.2 896.248 673.488 896.248 673.872C896.248 674.24 896.376 674.512 896.632 674.688C896.888 674.88 897.304 675.024 897.912 675.152L898.648 675.296C899.656 675.504 900.376 675.792 900.824 676.16C901.272 676.544 901.496 677.056 901.496 677.728C901.496 678.512 901.192 679.12 900.616 679.552C900.04 679.984 899.24 680.192 898.216 680.192Z" fill="white"/>
<rect x="716.5" y="650.5" width="299" height="47" rx="23.5" stroke="#4260DE"/>
<path d="M686.86 218V203.76H684.16V218H686.86ZM694.719 207.44C693.359 207.44 692.279 208.02 691.499 209.16V207.68H689.059V218H691.579V212.22C691.579 211.42 691.799 210.78 692.239 210.32C692.679 209.86 693.239 209.62 693.879 209.62C695.159 209.62 695.819 210.28 695.819 211.58V218H698.339V211.16C698.339 209.98 697.999 209.06 697.359 208.42C696.719 207.78 695.839 207.44 694.719 207.44ZM705.859 210.44C705.259 212.32 704.719 214.08 704.239 215.72C703.619 213.68 703.079 211.92 702.619 210.46L701.619 207.68H698.919L702.739 218H705.639L709.479 207.68H706.859L705.859 210.44ZM719.776 213.02C719.776 211.36 719.316 210.02 718.396 208.98C717.476 207.96 716.236 207.44 714.676 207.44C713.156 207.44 711.916 207.94 710.976 208.92C710.036 209.92 709.576 211.22 709.576 212.84C709.576 214.48 710.036 215.78 710.996 216.76C711.936 217.76 713.176 218.24 714.716 218.24C715.936 218.24 716.976 217.94 717.836 217.32C718.676 216.7 719.236 215.86 719.516 214.8H717.096C716.656 215.8 715.876 216.28 714.736 216.28C713.956 216.28 713.336 216.06 712.876 215.62C712.416 215.18 712.136 214.5 712.056 213.62H719.776V213.02ZM714.656 209.4C715.376 209.4 715.956 209.62 716.416 210.06C716.856 210.5 717.136 211.1 717.256 211.86H712.076C712.316 210.22 713.176 209.4 714.656 209.4ZM725.443 218.28C726.883 218.28 728.023 218 728.823 217.44C729.623 216.88 730.023 216.08 730.023 215.04C730.023 214.16 729.723 213.48 729.163 212.98C728.603 212.5 727.683 212.14 726.443 211.9L725.143 211.7C724.523 211.6 724.083 211.46 723.823 211.26C723.543 211.06 723.423 210.8 723.423 210.44C723.423 209.64 724.023 209.24 725.223 209.24C725.923 209.24 726.463 209.38 726.823 209.64C727.183 209.9 727.363 210.34 727.403 210.94H729.783C729.683 208.62 728.163 207.44 725.223 207.44C723.863 207.44 722.803 207.72 722.063 208.28C721.303 208.84 720.943 209.6 720.943 210.56C720.943 212.28 722.063 213.32 724.323 213.68L725.503 213.88C726.263 214.02 726.783 214.18 727.083 214.38C727.363 214.58 727.523 214.88 727.523 215.24C727.523 216.08 726.843 216.48 725.483 216.48C724.723 216.48 724.163 216.36 723.803 216.08C723.443 215.82 723.243 215.36 723.183 214.72H720.723C720.843 217.1 722.423 218.28 725.443 218.28ZM736.588 207.68H734.548V204.68H732.048V207.68H730.448V209.6H732.048V215.44C732.048 216.36 732.288 217.04 732.808 217.46C733.328 217.88 734.148 218.08 735.268 218.08C735.588 218.08 736.028 218.06 736.588 218V216.08H735.728C735.288 216.08 734.988 216.02 734.808 215.88C734.628 215.76 734.548 215.52 734.548 215.18V209.6H736.588V207.68Z" fill="#262626"/>
<path d="M683.28 252.032V253.096H686.668V262H687.886V253.096H691.274V252.032H683.28ZM695.457 254.608C694.533 254.608 693.791 255 693.245 255.77V252.032H692.125V262H693.245V257.912C693.245 257.17 693.441 256.596 693.847 256.204C694.239 255.812 694.701 255.616 695.233 255.616C696.325 255.616 696.885 256.162 696.885 257.226V262H698.005V257.114C698.005 256.33 697.781 255.714 697.333 255.266C696.885 254.832 696.255 254.608 695.457 254.608ZM705.986 258.388C705.986 257.31 705.692 256.414 705.104 255.686C704.516 254.972 703.704 254.608 702.668 254.608C701.66 254.608 700.862 254.958 700.26 255.644C699.644 256.344 699.336 257.254 699.336 258.388C699.336 259.55 699.644 260.474 700.274 261.146C700.89 261.832 701.688 262.168 702.696 262.168C703.508 262.168 704.18 261.958 704.712 261.538C705.244 261.118 705.608 260.53 705.804 259.802H704.642C704.362 260.698 703.718 261.146 702.724 261.146C702.052 261.146 701.534 260.95 701.156 260.558C700.764 260.166 700.554 259.564 700.498 258.78H705.986V258.388ZM702.668 255.63C703.27 255.63 703.76 255.84 704.138 256.232C704.502 256.624 704.726 257.142 704.782 257.772H700.526C700.61 257.086 700.848 256.554 701.226 256.19C701.59 255.826 702.08 255.63 702.668 255.63ZM710.541 254.776H709.351V255.756H710.541V262H711.661V255.756H713.201V254.776H711.661V254.006C711.661 253.334 711.983 252.984 712.627 252.984H713.271V252.032C712.963 252.018 712.725 252.004 712.557 252.004C711.213 252.004 710.541 252.69 710.541 254.034V254.776ZM714.279 253.684H715.469V252.312H714.279V253.684ZM715.441 262V254.776H714.321V262H715.441ZM720.505 254.664C719.441 254.664 718.657 255.126 718.181 256.05V254.776H717.117V262H718.237V257.884C718.237 257.212 718.433 256.68 718.853 256.316C719.273 255.952 719.847 255.756 720.603 255.756H720.883V254.678C720.813 254.678 720.687 254.664 720.505 254.664ZM724.191 262.168C725.087 262.168 725.787 261.986 726.291 261.608C726.795 261.23 727.061 260.698 727.061 260.012C727.061 259.424 726.865 258.976 726.473 258.64C726.081 258.318 725.451 258.066 724.569 257.884L723.925 257.758C723.393 257.646 723.029 257.52 722.805 257.352C722.581 257.198 722.469 256.96 722.469 256.638C722.469 256.302 722.595 256.05 722.861 255.854C723.113 255.672 723.491 255.574 723.981 255.574C724.583 255.574 725.031 255.686 725.325 255.896C725.605 256.12 725.773 256.484 725.801 257.002H726.921C726.865 255.406 725.885 254.608 723.981 254.608C723.169 254.608 722.525 254.804 722.049 255.168C721.573 255.532 721.349 256.036 721.349 256.652C721.349 257.8 722.091 258.5 723.603 258.78L724.275 258.906C724.891 259.032 725.325 259.172 725.563 259.34C725.801 259.508 725.927 259.76 725.927 260.082C725.927 260.838 725.339 261.202 724.191 261.202C723.547 261.202 723.085 261.09 722.791 260.866C722.497 260.642 722.315 260.25 722.259 259.704H721.125C721.237 261.356 722.259 262.168 724.191 262.168ZM731.205 254.776H729.721V252.732H728.601V254.776H727.411V255.756H728.601V260.544C728.601 261.552 729.203 262.042 730.407 262.042C730.631 262.042 730.897 262.028 731.205 262V261.062H730.547C729.987 261.062 729.721 260.866 729.721 260.446V255.756H731.205V254.776ZM737.603 262.168C738.499 262.168 739.199 261.986 739.703 261.608C740.207 261.23 740.473 260.698 740.473 260.012C740.473 259.424 740.277 258.976 739.885 258.64C739.493 258.318 738.863 258.066 737.981 257.884L737.337 257.758C736.805 257.646 736.441 257.52 736.217 257.352C735.993 257.198 735.881 256.96 735.881 256.638C735.881 256.302 736.007 256.05 736.273 255.854C736.525 255.672 736.903 255.574 737.393 255.574C737.995 255.574 738.443 255.686 738.737 255.896C739.017 256.12 739.185 256.484 739.213 257.002H740.333C740.277 255.406 739.297 254.608 737.393 254.608C736.581 254.608 735.937 254.804 735.461 255.168C734.985 255.532 734.761 256.036 734.761 256.652C734.761 257.8 735.503 258.5 737.015 258.78L737.687 258.906C738.303 259.032 738.737 259.172 738.975 259.34C739.213 259.508 739.339 259.76 739.339 260.082C739.339 260.838 738.751 261.202 737.603 261.202C736.959 261.202 736.497 261.09 736.203 260.866C735.909 260.642 735.727 260.25 735.671 259.704H734.537C734.649 261.356 735.671 262.168 737.603 262.168ZM744.617 254.776H743.133V252.732H742.013V254.776H740.823V255.756H742.013V260.544C742.013 261.552 742.615 262.042 743.819 262.042C744.043 262.042 744.309 262.028 744.617 262V261.062H743.959C743.399 261.062 743.133 260.866 743.133 260.446V255.756H744.617V254.776ZM751.964 258.388C751.964 257.31 751.67 256.414 751.082 255.686C750.494 254.972 749.682 254.608 748.646 254.608C747.638 254.608 746.84 254.958 746.238 255.644C745.622 256.344 745.314 257.254 745.314 258.388C745.314 259.55 745.622 260.474 746.252 261.146C746.868 261.832 747.666 262.168 748.674 262.168C749.486 262.168 750.158 261.958 750.69 261.538C751.222 261.118 751.586 260.53 751.782 259.802H750.62C750.34 260.698 749.696 261.146 748.702 261.146C748.03 261.146 747.512 260.95 747.134 260.558C746.742 260.166 746.532 259.564 746.476 258.78H751.964V258.388ZM748.646 255.63C749.248 255.63 749.738 255.84 750.116 256.232C750.48 256.624 750.704 257.142 750.76 257.772H746.504C746.588 257.086 746.826 256.554 747.204 256.19C747.568 255.826 748.058 255.63 748.646 255.63ZM756.835 254.608C755.757 254.608 754.931 255.042 754.357 255.896V254.776H753.293V264.744H754.413V260.964C754.987 261.776 755.799 262.168 756.835 262.168C757.843 262.168 758.669 261.832 759.285 261.132C759.887 260.446 760.195 259.536 760.195 258.388C760.195 257.24 759.887 256.33 759.285 255.63C758.669 254.958 757.843 254.608 756.835 254.608ZM756.695 261.16C755.981 261.16 755.421 260.922 755.001 260.418C754.581 259.942 754.371 259.256 754.371 258.388C754.371 257.52 754.581 256.834 755.001 256.344C755.421 255.868 755.981 255.616 756.695 255.616C757.409 255.616 757.969 255.868 758.389 256.344C758.809 256.82 759.019 257.492 759.019 258.332C759.019 259.2 758.795 259.9 758.375 260.404C757.955 260.908 757.395 261.16 756.695 261.16ZM767.354 254.776H765.87V252.732H764.75V254.776H763.56V255.756H764.75V260.544C764.75 261.552 765.352 262.042 766.556 262.042C766.78 262.042 767.046 262.028 767.354 262V261.062H766.696C766.136 261.062 765.87 260.866 765.87 260.446V255.756H767.354V254.776ZM774.071 261.132C774.715 260.46 775.051 259.536 775.051 258.388C775.051 257.24 774.715 256.33 774.071 255.644C773.399 254.958 772.559 254.608 771.551 254.608C770.529 254.608 769.689 254.958 769.031 255.644C768.373 256.33 768.051 257.24 768.051 258.388C768.051 259.536 768.373 260.46 769.031 261.132C769.689 261.832 770.529 262.168 771.551 262.168C772.559 262.168 773.399 261.832 774.071 261.132ZM769.857 260.418C769.437 259.942 769.227 259.256 769.227 258.388C769.227 257.52 769.437 256.834 769.857 256.344C770.277 255.868 770.837 255.616 771.551 255.616C772.251 255.616 772.825 255.868 773.245 256.344C773.665 256.834 773.875 257.52 773.875 258.388C773.875 259.256 773.665 259.942 773.245 260.418C772.825 260.922 772.251 261.16 771.551 261.16C770.837 261.16 770.277 260.922 769.857 260.418ZM780.199 253.684V252.312H779.009V253.684H780.199ZM780.171 262V254.776H779.051V262H780.171ZM785.186 254.608C784.22 254.608 783.464 255.028 782.918 255.854V254.776H781.854V262H782.974V257.912C782.974 257.17 783.17 256.596 783.576 256.204C783.968 255.812 784.43 255.616 784.962 255.616C786.054 255.616 786.614 256.162 786.614 257.226V262H787.734V257.114C787.734 256.33 787.51 255.714 787.062 255.266C786.614 254.832 785.984 254.608 785.186 254.608ZM792.741 257.982C792.223 259.368 791.887 260.306 791.719 260.796C791.621 260.516 791.285 259.578 790.697 257.996L789.507 254.776H788.289L791.117 262H792.293L795.135 254.776H793.931L792.741 257.982ZM801.921 258.388C801.921 257.31 801.627 256.414 801.039 255.686C800.451 254.972 799.639 254.608 798.603 254.608C797.595 254.608 796.797 254.958 796.195 255.644C795.579 256.344 795.271 257.254 795.271 258.388C795.271 259.55 795.579 260.474 796.209 261.146C796.825 261.832 797.623 262.168 798.631 262.168C799.443 262.168 800.115 261.958 800.647 261.538C801.179 261.118 801.543 260.53 801.739 259.802H800.577C800.297 260.698 799.653 261.146 798.659 261.146C797.987 261.146 797.469 260.95 797.091 260.558C796.699 260.166 796.489 259.564 796.433 258.78H801.921V258.388ZM798.603 255.63C799.205 255.63 799.695 255.84 800.073 256.232C800.437 256.624 800.661 257.142 800.717 257.772H796.461C796.545 257.086 796.783 256.554 797.161 256.19C797.525 255.826 798.015 255.63 798.603 255.63ZM805.73 262.168C806.626 262.168 807.326 261.986 807.83 261.608C808.334 261.23 808.6 260.698 808.6 260.012C808.6 259.424 808.404 258.976 808.012 258.64C807.62 258.318 806.99 258.066 806.108 257.884L805.464 257.758C804.932 257.646 804.568 257.52 804.344 257.352C804.12 257.198 804.008 256.96 804.008 256.638C804.008 256.302 804.134 256.05 804.4 255.854C804.652 255.672 805.03 255.574 805.52 255.574C806.122 255.574 806.57 255.686 806.864 255.896C807.144 256.12 807.312 256.484 807.34 257.002H808.46C808.404 255.406 807.424 254.608 805.52 254.608C804.708 254.608 804.064 254.804 803.588 255.168C803.112 255.532 802.888 256.036 802.888 256.652C802.888 257.8 803.63 258.5 805.142 258.78L805.814 258.906C806.43 259.032 806.864 259.172 807.102 259.34C807.34 259.508 807.466 259.76 807.466 260.082C807.466 260.838 806.878 261.202 805.73 261.202C805.086 261.202 804.624 261.09 804.33 260.866C804.036 260.642 803.854 260.25 803.798 259.704H802.664C802.776 261.356 803.798 262.168 805.73 262.168ZM812.744 254.776H811.26V252.732H810.14V254.776H808.95V255.756H810.14V260.544C810.14 261.552 810.742 262.042 811.946 262.042C812.17 262.042 812.436 262.028 812.744 262V261.062H812.086C811.526 261.062 811.26 260.866 811.26 260.446V255.756H812.744V254.776ZM815.076 253.684V252.312H813.886V253.684H815.076ZM815.048 262V254.776H813.928V262H815.048ZM820.063 254.608C819.097 254.608 818.341 255.028 817.795 255.854V254.776H816.731V262H817.851V257.912C817.851 257.17 818.047 256.596 818.453 256.204C818.845 255.812 819.307 255.616 819.839 255.616C820.931 255.616 821.491 256.162 821.491 257.226V262H822.611V257.114C822.611 256.33 822.387 255.714 821.939 255.266C821.491 254.832 820.861 254.608 820.063 254.608ZM829.779 255.826C829.191 255.014 828.365 254.608 827.301 254.608C826.265 254.608 825.453 254.958 824.865 255.63C824.249 256.316 823.941 257.24 823.941 258.388C823.941 259.536 824.249 260.446 824.865 261.132C825.467 261.832 826.279 262.168 827.301 262.168C828.337 262.168 829.149 261.79 829.723 261.02V261.72C829.723 263.218 828.967 263.96 827.483 263.96C826.307 263.96 825.663 263.512 825.523 262.588H824.403C824.473 263.316 824.781 263.89 825.327 264.296C825.859 264.716 826.587 264.912 827.483 264.912C828.561 264.912 829.387 264.632 829.975 264.058C830.549 263.498 830.843 262.714 830.843 261.72V254.776H829.779V255.826ZM827.441 261.16C826.741 261.16 826.167 260.908 825.747 260.404C825.327 259.9 825.117 259.228 825.117 258.388C825.117 257.548 825.327 256.876 825.747 256.372C826.167 255.868 826.741 255.616 827.441 255.616C828.141 255.616 828.715 255.868 829.135 256.358C829.555 256.862 829.765 257.534 829.765 258.388C829.765 259.256 829.555 259.928 829.135 260.418C828.715 260.922 828.141 261.16 827.441 261.16ZM836.336 253.684V252.312H835.146V253.684H836.336ZM836.308 262V254.776H835.188V262H836.308ZM840.538 262.168C841.434 262.168 842.134 261.986 842.638 261.608C843.142 261.23 843.408 260.698 843.408 260.012C843.408 259.424 843.212 258.976 842.82 258.64C842.428 258.318 841.798 258.066 840.916 257.884L840.272 257.758C839.74 257.646 839.376 257.52 839.152 257.352C838.928 257.198 838.816 256.96 838.816 256.638C838.816 256.302 838.942 256.05 839.208 255.854C839.46 255.672 839.838 255.574 840.328 255.574C840.93 255.574 841.378 255.686 841.672 255.896C841.952 256.12 842.12 256.484 842.148 257.002H843.268C843.212 255.406 842.232 254.608 840.328 254.608C839.516 254.608 838.872 254.804 838.396 255.168C837.92 255.532 837.696 256.036 837.696 256.652C837.696 257.8 838.438 258.5 839.95 258.78L840.622 258.906C841.238 259.032 841.672 259.172 841.91 259.34C842.148 259.508 842.274 259.76 842.274 260.082C842.274 260.838 841.686 261.202 840.538 261.202C839.894 261.202 839.432 261.09 839.138 260.866C838.844 260.642 838.662 260.25 838.606 259.704H837.472C837.584 261.356 838.606 262.168 840.538 262.168ZM850.356 254.776H848.872V252.732H847.752V254.776H846.562V255.756H847.752V260.544C847.752 261.552 848.354 262.042 849.558 262.042C849.782 262.042 850.048 262.028 850.356 262V261.062H849.698C849.138 261.062 848.872 260.866 848.872 260.446V255.756H850.356V254.776ZM857.073 261.132C857.717 260.46 858.053 259.536 858.053 258.388C858.053 257.24 857.717 256.33 857.073 255.644C856.401 254.958 855.561 254.608 854.553 254.608C853.531 254.608 852.691 254.958 852.033 255.644C851.375 256.33 851.053 257.24 851.053 258.388C851.053 259.536 851.375 260.46 852.033 261.132C852.691 261.832 853.531 262.168 854.553 262.168C855.561 262.168 856.401 261.832 857.073 261.132ZM852.859 260.418C852.439 259.942 852.229 259.256 852.229 258.388C852.229 257.52 852.439 256.834 852.859 256.344C853.279 255.868 853.839 255.616 854.553 255.616C855.253 255.616 855.827 255.868 856.247 256.344C856.667 256.834 856.877 257.52 856.877 258.388C856.877 259.256 856.667 259.942 856.247 260.418C855.827 260.922 855.253 261.16 854.553 261.16C853.839 261.16 853.279 260.922 852.859 260.418ZM867.961 261.09C867.695 261.09 867.569 260.978 867.569 260.74V256.708C867.569 255.308 866.659 254.608 864.853 254.608C862.977 254.608 861.997 255.406 861.913 257.002H863.033C863.061 256.47 863.215 256.106 863.495 255.896C863.775 255.686 864.223 255.574 864.853 255.574C865.441 255.574 865.847 255.672 866.099 255.84C866.351 256.022 866.477 256.316 866.477 256.708C866.477 257.296 866.099 257.618 865.343 257.702L864.307 257.814C862.515 258.01 861.633 258.752 861.633 260.054C861.633 260.726 861.857 261.258 862.305 261.622C862.753 261.986 863.383 262.168 864.181 262.168C865.245 262.168 866.029 261.79 866.533 261.006C866.589 261.706 866.995 262.042 867.751 262.042C867.975 262.042 868.171 262.028 868.367 262V261.09H867.961ZM864.237 261.216C863.761 261.216 863.397 261.118 863.159 260.908C862.907 260.698 862.795 260.404 862.795 260.026C862.795 259.648 862.921 259.354 863.173 259.144C863.425 258.948 863.859 258.808 864.475 258.724L865.525 258.598C865.945 258.556 866.267 258.458 866.477 258.29V259.144C866.477 259.816 866.253 260.32 865.805 260.67C865.357 261.034 864.825 261.216 864.237 261.216ZM874.717 255.812C874.129 255.014 873.331 254.608 872.295 254.608C871.259 254.608 870.447 254.958 869.859 255.63C869.243 256.316 868.935 257.24 868.935 258.388C868.935 259.536 869.243 260.446 869.859 261.132C870.461 261.832 871.273 262.168 872.295 262.168C873.359 262.168 874.185 261.748 874.773 260.88V262H875.837V252.032H874.717V255.812ZM870.741 260.446C870.321 259.97 870.111 259.312 870.111 258.444C870.111 257.576 870.321 256.89 870.741 256.386C871.161 255.882 871.735 255.616 872.435 255.616C873.135 255.616 873.709 255.868 874.129 256.358C874.549 256.862 874.759 257.534 874.759 258.388C874.759 259.256 874.549 259.942 874.129 260.418C873.709 260.922 873.135 261.16 872.435 261.16C871.721 261.16 871.161 260.922 870.741 260.446ZM882.948 255.812C882.36 255.014 881.562 254.608 880.526 254.608C879.49 254.608 878.678 254.958 878.09 255.63C877.474 256.316 877.166 257.24 877.166 258.388C877.166 259.536 877.474 260.446 878.09 261.132C878.692 261.832 879.504 262.168 880.526 262.168C881.59 262.168 882.416 261.748 883.004 260.88V262H884.068V252.032H882.948V255.812ZM878.972 260.446C878.552 259.97 878.342 259.312 878.342 258.444C878.342 257.576 878.552 256.89 878.972 256.386C879.392 255.882 879.966 255.616 880.666 255.616C881.366 255.616 881.94 255.868 882.36 256.358C882.78 256.862 882.99 257.534 882.99 258.388C882.99 259.256 882.78 259.942 882.36 260.418C881.94 260.922 881.366 261.16 880.666 261.16C879.952 261.16 879.392 260.922 878.972 260.446ZM891.702 252.984V252.032C891.394 252.018 891.156 252.004 890.988 252.004C889.644 252.004 888.972 252.69 888.972 254.034V254.776H887.782V255.756H888.972V262H890.092V255.756H891.632V254.776H890.092V254.006C890.092 253.334 890.414 252.984 891.058 252.984H891.702ZM897.452 258.864C897.452 259.62 897.242 260.18 896.85 260.572C896.444 260.964 895.982 261.16 895.464 261.16C894.358 261.16 893.812 260.628 893.812 259.55V254.776H892.692V259.662C892.692 260.46 892.916 261.076 893.364 261.51C893.812 261.958 894.428 262.168 895.24 262.168C896.192 262.168 896.948 261.762 897.508 260.922V262H898.572V254.776H897.452V258.864ZM903.584 254.608C902.618 254.608 901.862 255.028 901.316 255.854V254.776H900.252V262H901.372V257.912C901.372 257.17 901.568 256.596 901.974 256.204C902.366 255.812 902.828 255.616 903.36 255.616C904.452 255.616 905.012 256.162 905.012 257.226V262H906.132V257.114C906.132 256.33 905.908 255.714 905.46 255.266C905.012 254.832 904.382 254.608 903.584 254.608ZM913.245 255.812C912.657 255.014 911.859 254.608 910.823 254.608C909.787 254.608 908.975 254.958 908.387 255.63C907.771 256.316 907.463 257.24 907.463 258.388C907.463 259.536 907.771 260.446 908.387 261.132C908.989 261.832 909.801 262.168 910.823 262.168C911.887 262.168 912.713 261.748 913.301 260.88V262H914.365V252.032H913.245V255.812ZM909.269 260.446C908.849 259.97 908.639 259.312 908.639 258.444C908.639 257.576 908.849 256.89 909.269 256.386C909.689 255.882 910.263 255.616 910.963 255.616C911.663 255.616 912.237 255.868 912.657 256.358C913.077 256.862 913.287 257.534 913.287 258.388C913.287 259.256 913.077 259.942 912.657 260.418C912.237 260.922 911.663 261.16 910.963 261.16C910.249 261.16 909.689 260.922 909.269 260.446ZM918.591 262.168C919.487 262.168 920.187 261.986 920.691 261.608C921.195 261.23 921.461 260.698 921.461 260.012C921.461 259.424 921.265 258.976 920.873 258.64C920.481 258.318 919.851 258.066 918.969 257.884L918.325 257.758C917.793 257.646 917.429 257.52 917.205 257.352C916.981 257.198 916.869 256.96 916.869 256.638C916.869 256.302 916.995 256.05 917.261 255.854C917.513 255.672 917.891 255.574 918.381 255.574C918.983 255.574 919.431 255.686 919.725 255.896C920.005 256.12 920.173 256.484 920.201 257.002H921.321C921.265 255.406 920.285 254.608 918.381 254.608C917.569 254.608 916.925 254.804 916.449 255.168C915.973 255.532 915.749 256.036 915.749 256.652C915.749 257.8 916.491 258.5 918.003 258.78L918.675 258.906C919.291 259.032 919.725 259.172 919.963 259.34C920.201 259.508 920.327 259.76 920.327 260.082C920.327 260.838 919.739 261.202 918.591 261.202C917.947 261.202 917.485 261.09 917.191 260.866C916.897 260.642 916.715 260.25 916.659 259.704H915.525C915.637 261.356 916.659 262.168 918.591 262.168ZM928.408 254.776H926.924V252.732H925.804V254.776H924.614V255.756H925.804V260.544C925.804 261.552 926.406 262.042 927.61 262.042C927.834 262.042 928.1 262.028 928.408 262V261.062H927.75C927.19 261.062 926.924 260.866 926.924 260.446V255.756H928.408V254.776ZM935.125 261.132C935.769 260.46 936.105 259.536 936.105 258.388C936.105 257.24 935.769 256.33 935.125 255.644C934.453 254.958 933.613 254.608 932.605 254.608C931.583 254.608 930.743 254.958 930.085 255.644C929.427 256.33 929.105 257.24 929.105 258.388C929.105 259.536 929.427 260.46 930.085 261.132C930.743 261.832 931.583 262.168 932.605 262.168C933.613 262.168 934.453 261.832 935.125 261.132ZM930.911 260.418C930.491 259.942 930.281 259.256 930.281 258.388C930.281 257.52 930.491 256.834 930.911 256.344C931.331 255.868 931.891 255.616 932.605 255.616C933.305 255.616 933.879 255.868 934.299 256.344C934.719 256.834 934.929 257.52 934.929 258.388C934.929 259.256 934.719 259.942 934.299 260.418C933.879 260.922 933.305 261.16 932.605 261.16C931.891 261.16 931.331 260.922 930.911 260.418ZM946.014 261.09C945.748 261.09 945.622 260.978 945.622 260.74V256.708C945.622 255.308 944.712 254.608 942.906 254.608C941.03 254.608 940.05 255.406 939.966 257.002H941.086C941.114 256.47 941.268 256.106 941.548 255.896C941.828 255.686 942.276 255.574 942.906 255.574C943.494 255.574 943.9 255.672 944.152 255.84C944.404 256.022 944.53 256.316 944.53 256.708C944.53 257.296 944.152 257.618 943.396 257.702L942.36 257.814C940.568 258.01 939.686 258.752 939.686 260.054C939.686 260.726 939.91 261.258 940.358 261.622C940.806 261.986 941.436 262.168 942.234 262.168C943.298 262.168 944.082 261.79 944.586 261.006C944.642 261.706 945.048 262.042 945.804 262.042C946.028 262.042 946.224 262.028 946.42 262V261.09H946.014ZM942.29 261.216C941.814 261.216 941.45 261.118 941.212 260.908C940.96 260.698 940.848 260.404 940.848 260.026C940.848 259.648 940.974 259.354 941.226 259.144C941.478 258.948 941.912 258.808 942.528 258.724L943.578 258.598C943.998 258.556 944.32 258.458 944.53 258.29V259.144C944.53 259.816 944.306 260.32 943.858 260.67C943.41 261.034 942.878 261.216 942.29 261.216ZM950.738 254.608C949.772 254.608 949.016 255.028 948.47 255.854V254.776H947.406V262H948.526V257.912C948.526 257.17 948.722 256.596 949.128 256.204C949.52 255.812 949.982 255.616 950.514 255.616C951.606 255.616 952.166 256.162 952.166 257.226V262H953.286V257.114C953.286 256.33 953.062 255.714 952.614 255.266C952.166 254.832 951.536 254.608 950.738 254.608ZM963.541 261.09C963.275 261.09 963.149 260.978 963.149 260.74V256.708C963.149 255.308 962.239 254.608 960.433 254.608C958.557 254.608 957.577 255.406 957.493 257.002H958.613C958.641 256.47 958.795 256.106 959.075 255.896C959.355 255.686 959.803 255.574 960.433 255.574C961.021 255.574 961.427 255.672 961.679 255.84C961.931 256.022 962.057 256.316 962.057 256.708C962.057 257.296 961.679 257.618 960.923 257.702L959.887 257.814C958.095 258.01 957.213 258.752 957.213 260.054C957.213 260.726 957.437 261.258 957.885 261.622C958.333 261.986 958.963 262.168 959.761 262.168C960.825 262.168 961.609 261.79 962.113 261.006C962.169 261.706 962.575 262.042 963.331 262.042C963.555 262.042 963.751 262.028 963.947 262V261.09H963.541ZM959.817 261.216C959.341 261.216 958.977 261.118 958.739 260.908C958.487 260.698 958.375 260.404 958.375 260.026C958.375 259.648 958.501 259.354 958.753 259.144C959.005 258.948 959.439 258.808 960.055 258.724L961.105 258.598C961.525 258.556 961.847 258.458 962.057 258.29V259.144C962.057 259.816 961.833 260.32 961.385 260.67C960.937 261.034 960.405 261.216 959.817 261.216ZM967.861 262.168C968.673 262.168 969.373 261.93 969.933 261.454C970.493 260.978 970.843 260.334 970.969 259.522H969.821C969.737 260.04 969.513 260.446 969.149 260.726C968.785 261.02 968.351 261.16 967.861 261.16C967.203 261.16 966.671 260.922 966.279 260.432C965.887 259.956 965.691 259.27 965.691 258.388C965.691 257.506 965.887 256.82 966.279 256.344C966.671 255.868 967.189 255.616 967.861 255.616C968.351 255.616 968.771 255.756 969.135 256.036C969.499 256.316 969.723 256.722 969.807 257.226H970.969C970.857 256.414 970.521 255.784 969.975 255.308C969.415 254.846 968.715 254.608 967.861 254.608C966.839 254.608 966.027 254.958 965.439 255.63C964.823 256.316 964.515 257.24 964.515 258.388C964.515 259.536 964.823 260.446 965.439 261.132C966.055 261.832 966.853 262.168 967.861 262.168ZM975.162 262.168C975.974 262.168 976.674 261.93 977.234 261.454C977.794 260.978 978.144 260.334 978.27 259.522H977.122C977.038 260.04 976.814 260.446 976.45 260.726C976.086 261.02 975.652 261.16 975.162 261.16C974.504 261.16 973.972 260.922 973.58 260.432C973.188 259.956 972.992 259.27 972.992 258.388C972.992 257.506 973.188 256.82 973.58 256.344C973.972 255.868 974.49 255.616 975.162 255.616C975.652 255.616 976.072 255.756 976.436 256.036C976.8 256.316 977.024 256.722 977.108 257.226H978.27C978.158 256.414 977.822 255.784 977.276 255.308C976.716 254.846 976.016 254.608 975.162 254.608C974.14 254.608 973.328 254.958 972.74 255.63C972.124 256.316 971.816 257.24 971.816 258.388C971.816 259.536 972.124 260.446 972.74 261.132C973.356 261.832 974.154 262.168 975.162 262.168ZM985.137 261.132C985.781 260.46 986.117 259.536 986.117 258.388C986.117 257.24 985.781 256.33 985.137 255.644C984.465 254.958 983.625 254.608 982.617 254.608C981.595 254.608 980.755 254.958 980.097 255.644C979.439 256.33 979.117 257.24 979.117 258.388C979.117 259.536 979.439 260.46 980.097 261.132C980.755 261.832 981.595 262.168 982.617 262.168C983.625 262.168 984.465 261.832 985.137 261.132ZM980.923 260.418C980.503 259.942 980.293 259.256 980.293 258.388C980.293 257.52 980.503 256.834 980.923 256.344C981.343 255.868 981.903 255.616 982.617 255.616C983.317 255.616 983.891 255.868 984.311 256.344C984.731 256.834 984.941 257.52 984.941 258.388C984.941 259.256 984.731 259.942 984.311 260.418C983.891 260.922 983.317 261.16 982.617 261.16C981.903 261.16 981.343 260.922 980.923 260.418ZM992.006 258.864C992.006 259.62 991.796 260.18 991.404 260.572C990.998 260.964 990.536 261.16 990.018 261.16C988.912 261.16 988.366 260.628 988.366 259.55V254.776H987.246V259.662C987.246 260.46 987.47 261.076 987.918 261.51C988.366 261.958 988.982 262.168 989.794 262.168C990.746 262.168 991.502 261.762 992.062 260.922V262H993.126V254.776H992.006V258.864ZM998.139 254.608C997.173 254.608 996.417 255.028 995.871 255.854V254.776H994.807V262H995.927V257.912C995.927 257.17 996.123 256.596 996.529 256.204C996.921 255.812 997.383 255.616 997.915 255.616C999.007 255.616 999.567 256.162 999.567 257.226V262H1000.69V257.114C1000.69 256.33 1000.46 255.714 1000.01 255.266C999.567 254.832 998.937 254.608 998.139 254.608ZM1005.26 254.776H1003.77V252.732H1002.65V254.776H1001.46V255.756H1002.65V260.544C1002.65 261.552 1003.26 262.042 1004.46 262.042C1004.68 262.042 1004.95 262.028 1005.26 262V261.062H1004.6C1004.04 261.062 1003.77 260.866 1003.77 260.446V255.756H1005.26V254.776ZM1007.65 262V260.6H1006.23V262H1007.65Z" fill="#262626"/>
<path d="M841.594 546.091C773.584 592.491 692.194 548.758 660 521.091V617.5H1075V397.591C974.897 262.091 926.606 488.091 841.594 546.091Z" fill="url(#paint1_linear_839_2986)"/>
<path d="M790.864 501.728V498.768H789.616V501.728H786.64V502.88H789.616V505.84H790.864V502.88H793.824V501.728H790.864ZM799.772 506.784C799.804 506.208 799.98 505.712 800.3 505.312C800.604 504.912 801.116 504.496 801.82 504.064L803.036 503.36C804.764 502.368 805.628 501.12 805.628 499.648C805.628 498.688 805.292 497.904 804.62 497.264C803.948 496.656 803.068 496.352 801.996 496.352C800.812 496.352 799.884 496.672 799.228 497.312C798.556 497.952 798.236 498.864 798.252 500.016H799.58C799.58 498.384 800.364 497.568 801.964 497.568C802.668 497.568 803.212 497.76 803.612 498.144C804.012 498.528 804.22 499.024 804.22 499.648C804.22 500.224 804.06 500.72 803.756 501.12C803.452 501.536 802.94 501.952 802.22 502.368L800.78 503.2C799.916 503.712 799.292 504.288 798.94 504.96C798.572 505.632 798.364 506.448 798.3 507.376L798.268 508H805.788V506.784H799.772ZM810.549 500.576C809.717 500.576 808.997 500.864 808.389 501.408L808.933 497.824H813.733V496.608H807.845L806.885 503.168H808.133C808.565 502.256 809.349 501.792 810.469 501.792C811.205 501.792 811.813 502.048 812.293 502.528C812.773 503.008 813.013 503.648 813.013 504.416C813.013 505.2 812.773 505.84 812.293 506.32C811.813 506.8 811.205 507.04 810.469 507.04C809.781 507.04 809.205 506.848 808.741 506.448C808.261 506.064 808.005 505.52 807.941 504.832H806.597C806.661 505.872 807.045 506.704 807.765 507.312C808.469 507.952 809.381 508.256 810.469 508.256C811.653 508.256 812.613 507.904 813.349 507.168C814.053 506.464 814.421 505.536 814.421 504.416C814.421 503.296 814.069 502.368 813.397 501.648C812.709 500.944 811.765 500.576 810.549 500.576ZM816.914 508V506.4H815.298V508H816.914ZM820.272 496.608C820.144 497.248 819.872 497.696 819.488 497.952C819.088 498.224 818.48 498.384 817.68 498.432L817.424 498.448V499.504H820.016V508H821.36V496.608H820.272ZM829.283 501.936C830.307 501.36 830.835 500.528 830.835 499.44C830.835 498.48 830.499 497.728 829.827 497.184C829.155 496.64 828.275 496.352 827.187 496.352C826.035 496.352 825.139 496.672 824.467 497.28C823.795 497.888 823.459 498.72 823.459 499.744H824.803C824.835 499.04 825.059 498.496 825.475 498.128C825.891 497.76 826.467 497.568 827.187 497.568C827.891 497.568 828.435 497.744 828.851 498.08C829.267 498.416 829.475 498.88 829.475 499.472C829.475 500.08 829.267 500.56 828.851 500.896C828.435 501.248 827.859 501.408 827.107 501.408H826.339V502.528H827.187C827.987 502.528 828.611 502.736 829.075 503.152C829.539 503.568 829.779 504.112 829.779 504.8C829.779 505.488 829.539 506.032 829.091 506.432C828.643 506.848 828.035 507.04 827.266 507.04C826.435 507.04 825.779 506.832 825.331 506.416C824.867 506 824.627 505.376 824.611 504.56H823.283C823.267 505.712 823.603 506.608 824.307 507.264C825.011 507.936 825.987 508.256 827.266 508.256C828.435 508.256 829.379 507.936 830.099 507.296C830.819 506.672 831.187 505.84 831.187 504.8C831.187 503.552 830.547 502.608 829.283 501.936ZM843.469 507.072C844.237 506.304 844.637 505.2 844.637 503.776V496.608H843.293V503.776C843.293 505.952 842.237 507.024 840.157 507.024C838.061 507.024 837.021 505.952 837.021 503.776V496.608H835.677V503.776C835.677 505.2 836.061 506.304 836.845 507.072C837.613 507.856 838.717 508.24 840.157 508.24C841.581 508.24 842.685 507.856 843.469 507.072ZM850.732 508.256C852.06 508.256 853.1 507.968 853.868 507.36C854.62 506.768 855.004 505.952 855.004 504.912C855.004 504.064 854.716 503.376 854.172 502.864C853.612 502.352 852.7 501.952 851.452 501.664L850.444 501.44C849.388 501.216 848.684 500.944 848.332 500.624C847.948 500.32 847.772 499.888 847.772 499.328C847.772 498.784 847.98 498.352 848.412 498.032C848.844 497.728 849.468 497.568 850.268 497.568C851.324 497.568 852.076 497.76 852.54 498.144C853.004 498.528 853.276 499.12 853.34 499.92H854.716C854.7 499.44 854.62 498.992 854.46 498.576C854.3 498.176 854.06 497.808 853.74 497.456C853.404 497.104 852.94 496.832 852.348 496.64C851.756 496.448 851.068 496.352 850.268 496.352C849.084 496.352 848.14 496.624 847.436 497.168C846.732 497.712 846.38 498.432 846.38 499.328C846.38 500.256 846.668 500.96 847.244 501.472C847.82 501.984 848.684 502.368 849.836 502.624L850.844 502.848C851.868 503.072 852.572 503.344 852.988 503.648C853.404 503.952 853.612 504.368 853.612 504.912C853.612 505.616 853.356 506.144 852.86 506.496C852.364 506.864 851.66 507.04 850.732 507.04C848.524 507.04 847.42 506.112 847.388 504.24H845.996C845.996 505.584 846.428 506.576 847.26 507.248C848.092 507.92 849.244 508.256 850.732 508.256ZM856.446 496.608V508H860.286C861.998 508 863.358 507.504 864.382 506.48C865.374 505.472 865.87 504.08 865.87 502.304C865.87 500.512 865.374 499.12 864.382 498.112C863.374 497.12 862.014 496.608 860.286 496.608H856.446ZM857.79 506.784V497.824H860.286C861.63 497.824 862.654 498.224 863.374 499.008C864.094 499.808 864.462 500.896 864.462 502.304C864.462 503.712 864.094 504.816 863.374 505.6C862.654 506.4 861.63 506.784 860.286 506.784H857.79Z" fill="#199835"/>
<path d="M660 521.091C692.194 548.758 773.584 592.491 841.594 546.091C926.606 488.091 974.897 262.091 1075 397.591" stroke="#4260DE" stroke-width="2" stroke-linecap="round"/>
<path d="M887.067 501.5C887.067 503.98 885.043 506 882.533 506C880.024 506 878 503.98 878 501.5C878 499.02 880.024 497 882.533 497C885.043 497 887.067 499.02 887.067 501.5Z" fill="#2942AE" stroke="white" stroke-width="2"/>
<path d="M692.166 799.826C691.662 801.176 691.23 802.436 690.834 803.624C690.492 802.634 690.06 801.428 689.52 800.006L686.892 793.184H684.228V806H686.082V801.986C686.082 799.124 686.046 796.982 686.01 795.542C686.316 796.442 686.676 797.414 687.072 798.458L690.006 806H691.626L694.524 798.458C694.992 797.252 695.352 796.262 695.604 795.488C695.55 796.928 695.532 799.106 695.532 801.986V806H697.386V793.184H694.704L692.166 799.826ZM704.327 799.898C703.859 801.338 703.391 802.832 702.923 804.344C702.563 803.156 702.113 801.68 701.537 799.898L700.457 796.712H698.495L701.933 806.252C701.897 806.342 701.843 806.468 701.789 806.612C701.735 806.774 701.699 806.882 701.681 806.954C701.393 807.71 700.853 808.07 700.061 808.07H699.161V809.528C699.449 809.564 699.773 809.582 700.097 809.582C701.033 809.582 701.771 809.402 702.293 809.042C702.797 808.682 703.211 808.07 703.535 807.17L707.315 796.712H705.407L704.327 799.898ZM720.026 804.614C719.684 804.614 719.522 804.47 719.522 804.146V799.232C719.522 797.414 718.298 796.496 715.85 796.496C713.348 796.496 712.034 797.54 711.908 799.61H713.69C713.726 798.998 713.924 798.566 714.248 798.314C714.572 798.062 715.094 797.936 715.85 797.936C716.534 797.936 717.02 798.044 717.308 798.26C717.596 798.476 717.758 798.8 717.758 799.268C717.758 799.628 717.632 799.898 717.416 800.078C717.2 800.258 716.84 800.384 716.372 800.438L715.004 800.582C712.664 800.834 711.512 801.788 711.512 803.462C711.512 804.326 711.8 805.01 712.394 805.496C712.988 805.982 713.798 806.216 714.824 806.216C716.21 806.216 717.218 805.73 717.848 804.74C717.902 805.208 718.064 805.532 718.352 805.748C718.64 805.964 719.072 806.054 719.648 806.054C719.972 806.054 720.26 806.036 720.53 806V804.614H720.026ZM715.094 804.812C714.518 804.812 714.086 804.704 713.798 804.452C713.51 804.2 713.366 803.858 713.366 803.408C713.366 802.976 713.51 802.634 713.816 802.382C714.104 802.13 714.608 801.968 715.31 801.878L716.606 801.734C717.146 801.68 717.524 801.554 717.758 801.356V802.328C717.758 803.12 717.506 803.732 717.002 804.164C716.498 804.596 715.85 804.812 715.094 804.812ZM725.628 806.216C726.744 806.216 727.68 805.91 728.436 805.262C729.192 804.632 729.642 803.768 729.786 802.688H727.95C727.842 803.336 727.572 803.822 727.158 804.146C726.726 804.488 726.222 804.65 725.628 804.65C724.836 804.65 724.224 804.38 723.756 803.804C723.288 803.228 723.072 802.418 723.072 801.356C723.072 800.312 723.288 799.502 723.756 798.926C724.224 798.35 724.836 798.062 725.628 798.062C726.204 798.062 726.708 798.224 727.122 798.548C727.536 798.872 727.806 799.34 727.932 799.952H729.768C729.624 798.908 729.174 798.062 728.436 797.432C727.698 796.82 726.762 796.496 725.628 796.496C724.296 796.496 723.216 796.946 722.424 797.81C721.596 798.71 721.2 799.88 721.2 801.356C721.2 802.832 721.596 804.002 722.424 804.884C723.234 805.784 724.296 806.216 725.628 806.216ZM735.208 806.216C736.324 806.216 737.26 805.91 738.016 805.262C738.772 804.632 739.222 803.768 739.366 802.688H737.53C737.422 803.336 737.152 803.822 736.738 804.146C736.306 804.488 735.802 804.65 735.208 804.65C734.416 804.65 733.804 804.38 733.336 803.804C732.868 803.228 732.652 802.418 732.652 801.356C732.652 800.312 732.868 799.502 733.336 798.926C733.804 798.35 734.416 798.062 735.208 798.062C735.784 798.062 736.288 798.224 736.702 798.548C737.116 798.872 737.386 799.34 737.512 799.952H739.348C739.204 798.908 738.754 798.062 738.016 797.432C737.278 796.82 736.342 796.496 735.208 796.496C733.876 796.496 732.796 796.946 732.004 797.81C731.176 798.71 730.78 799.88 730.78 801.356C730.78 802.832 731.176 804.002 732.004 804.884C732.814 805.784 733.876 806.216 735.208 806.216ZM748.298 804.884C749.126 804.02 749.558 802.832 749.558 801.356C749.558 799.88 749.126 798.692 748.298 797.81C747.452 796.946 746.336 796.496 744.968 796.496C743.582 796.496 742.466 796.946 741.638 797.81C740.774 798.71 740.36 799.88 740.36 801.356C740.36 802.832 740.774 804.002 741.638 804.884C742.484 805.784 743.6 806.216 744.968 806.216C746.336 806.216 747.434 805.784 748.298 804.884ZM744.968 804.668C744.122 804.668 743.456 804.38 742.97 803.786C742.466 803.21 742.232 802.4 742.232 801.356C742.232 800.33 742.466 799.52 742.97 798.926C743.456 798.35 744.122 798.044 744.968 798.044C745.796 798.044 746.462 798.35 746.948 798.926C747.434 799.52 747.686 800.33 747.686 801.356C747.686 802.4 747.434 803.21 746.948 803.786C746.462 804.38 745.796 804.668 744.968 804.668ZM757.002 801.95C757.002 802.796 756.768 803.462 756.318 803.93C755.868 804.398 755.31 804.632 754.662 804.632C753.348 804.632 752.7 803.984 752.7 802.688V796.712H750.9V802.94C750.9 803.984 751.188 804.776 751.764 805.352C752.34 805.928 753.132 806.216 754.158 806.216C755.382 806.216 756.354 805.694 757.074 804.614V806H758.802V796.712H757.002V801.95ZM765.475 796.496C764.233 796.496 763.261 797.036 762.559 798.098V796.712H760.831V806H762.631V800.762C762.631 799.898 762.865 799.232 763.351 798.764C763.819 798.314 764.359 798.08 764.971 798.08C766.267 798.08 766.933 798.728 766.933 800.024V806H768.733V799.772C768.733 798.728 768.445 797.936 767.869 797.36C767.293 796.784 766.483 796.496 765.475 796.496ZM774.839 796.712H772.967V794.048H771.167V796.712H769.673V798.188H771.167V803.93C771.167 804.686 771.365 805.226 771.797 805.55C772.211 805.892 772.859 806.054 773.741 806.054C774.065 806.054 774.443 806.036 774.839 806V804.56H774.029C773.633 804.56 773.363 804.506 773.201 804.38C773.039 804.254 772.967 804.056 772.967 803.768V798.188H774.839V796.712ZM779.668 806.234C780.892 806.234 781.846 806 782.53 805.496C783.214 804.992 783.556 804.29 783.556 803.39C783.556 802.634 783.304 802.022 782.8 801.59C782.296 801.158 781.468 800.834 780.334 800.618L779.362 800.456C778.75 800.348 778.318 800.186 778.048 799.988C777.76 799.79 777.634 799.502 777.634 799.142C777.634 798.746 777.778 798.44 778.102 798.224C778.408 798.008 778.858 797.9 779.434 797.9C780.154 797.9 780.676 798.044 781.036 798.296C781.378 798.548 781.576 798.998 781.612 799.61H783.358C783.286 797.54 781.99 796.496 779.434 796.496C778.318 796.496 777.436 796.748 776.806 797.234C776.158 797.72 775.852 798.368 775.852 799.196C775.852 800.69 776.824 801.608 778.804 801.968L779.758 802.148C780.496 802.292 781.018 802.454 781.306 802.652C781.594 802.868 781.738 803.156 781.738 803.516C781.738 804.38 781.054 804.812 779.686 804.812C778.93 804.812 778.372 804.686 778.03 804.416C777.67 804.164 777.472 803.696 777.4 803.048H775.6C775.726 805.172 777.076 806.234 779.668 806.234Z" fill="#262626"/>
<path d="M687.633 852.224C688.837 852.224 689.789 851.958 690.475 851.426C691.161 850.894 691.511 850.166 691.511 849.242C691.511 848.472 691.259 847.856 690.755 847.394C690.251 846.946 689.439 846.596 688.305 846.344L687.437 846.162C686.597 845.994 686.037 845.77 685.729 845.518C685.421 845.294 685.267 844.944 685.267 844.482C685.267 844.034 685.435 843.698 685.785 843.446C686.121 843.208 686.625 843.082 687.283 843.082C688.123 843.082 688.725 843.236 689.103 843.544C689.481 843.852 689.691 844.314 689.747 844.958H691.231C691.203 843.978 690.867 843.208 690.209 842.648C689.551 842.088 688.571 841.808 687.269 841.808C686.177 841.808 685.323 842.06 684.693 842.55C684.049 843.04 683.741 843.698 683.741 844.51C683.741 845.336 683.993 845.98 684.525 846.442C685.043 846.918 685.813 847.254 686.849 847.45L687.703 847.632C688.543 847.828 689.131 848.038 689.467 848.276C689.789 848.514 689.957 848.85 689.957 849.284C689.957 849.83 689.747 850.25 689.355 850.53C688.963 850.81 688.389 850.95 687.661 850.95C685.869 850.95 684.973 850.208 684.945 848.71H683.447C683.447 849.858 683.825 850.74 684.553 851.328C685.281 851.93 686.317 852.224 687.633 852.224ZM698.928 850.922C698.662 850.922 698.536 850.81 698.536 850.558V846.736C698.536 845.322 697.584 844.608 695.68 844.608C693.734 844.608 692.712 845.42 692.614 847.03H694C694.028 846.554 694.182 846.218 694.434 846.022C694.686 845.826 695.092 845.728 695.68 845.728C696.212 845.728 696.59 845.812 696.814 845.98C697.038 846.148 697.164 846.4 697.164 846.764C697.164 847.044 697.066 847.254 696.898 847.394C696.73 847.534 696.45 847.632 696.086 847.674L695.022 847.786C693.202 847.982 692.306 848.724 692.306 850.026C692.306 850.698 692.53 851.23 692.992 851.608C693.454 851.986 694.084 852.168 694.882 852.168C695.96 852.168 696.744 851.79 697.234 851.02C697.276 851.384 697.402 851.636 697.626 851.804C697.85 851.972 698.186 852.042 698.634 852.042C698.886 852.042 699.11 852.028 699.32 852V850.922H698.928ZM695.092 851.076C694.644 851.076 694.308 850.992 694.084 850.796C693.86 850.6 693.748 850.334 693.748 849.984C693.748 849.648 693.86 849.382 694.098 849.186C694.322 848.99 694.714 848.864 695.26 848.794L696.268 848.682C696.688 848.64 696.982 848.542 697.164 848.388V849.144C697.164 849.76 696.968 850.236 696.576 850.572C696.184 850.908 695.68 851.076 695.092 851.076ZM703.795 847.422C703.627 847.94 703.459 848.444 703.291 848.934C703.123 849.424 702.983 849.802 702.899 850.082C702.801 850.362 702.745 850.558 702.717 850.642C702.661 850.474 702.311 849.396 701.653 847.422L700.673 844.776H699.161L701.919 852H703.473L706.245 844.776H704.761L703.795 847.422ZM708.427 843.754V842.256H706.999V843.754H708.427ZM708.413 852V844.776H707.013V852H708.413ZM713.591 844.608C712.625 844.608 711.869 845.028 711.323 845.854V844.776H709.979V852H711.379V847.926C711.379 847.254 711.561 846.736 711.939 846.372C712.303 846.022 712.723 845.84 713.199 845.84C714.207 845.84 714.725 846.344 714.725 847.352V852H716.125V847.156C716.125 846.344 715.901 845.728 715.453 845.28C715.005 844.832 714.375 844.608 713.591 844.608ZM723.066 845.798C722.52 845.014 721.722 844.608 720.672 844.608C719.664 844.608 718.866 844.958 718.278 845.63C717.662 846.33 717.368 847.226 717.368 848.346C717.368 849.466 717.662 850.376 718.278 851.062C718.866 851.748 719.678 852.084 720.686 852.084C721.68 852.084 722.45 851.72 723.01 850.964V851.762C723.01 853.106 722.324 853.778 720.98 853.778C719.888 853.778 719.286 853.358 719.174 852.504H717.774C717.844 853.26 718.152 853.848 718.712 854.268C719.272 854.702 720.014 854.912 720.966 854.912C722.058 854.912 722.912 854.632 723.514 854.072C724.102 853.512 724.41 852.728 724.41 851.734V844.776H723.066V845.798ZM720.938 850.88C720.294 850.88 719.776 850.656 719.398 850.208C719.006 849.76 718.824 849.13 718.824 848.346C718.824 847.576 719.006 846.96 719.398 846.498C719.776 846.05 720.294 845.812 720.938 845.812C721.582 845.812 722.1 846.05 722.478 846.498C722.856 846.946 723.052 847.562 723.052 848.346C723.052 849.13 722.856 849.76 722.478 850.208C722.1 850.656 721.582 850.88 720.938 850.88ZM728.663 852.182C729.615 852.182 730.357 852 730.889 851.608C731.421 851.216 731.687 850.67 731.687 849.97C731.687 849.382 731.491 848.906 731.099 848.57C730.707 848.234 730.063 847.982 729.181 847.814L728.425 847.688C727.949 847.604 727.613 847.478 727.403 847.324C727.179 847.17 727.081 846.946 727.081 846.666C727.081 846.358 727.193 846.12 727.445 845.952C727.683 845.784 728.033 845.7 728.481 845.7C729.041 845.7 729.447 845.812 729.727 846.008C729.993 846.204 730.147 846.554 730.175 847.03H731.533C731.477 845.42 730.469 844.608 728.481 844.608C727.613 844.608 726.927 844.804 726.437 845.182C725.933 845.56 725.695 846.064 725.695 846.708C725.695 847.87 726.451 848.584 727.991 848.864L728.733 849.004C729.307 849.116 729.713 849.242 729.937 849.396C730.161 849.564 730.273 849.788 730.273 850.068C730.273 850.74 729.741 851.076 728.677 851.076C728.089 851.076 727.655 850.978 727.389 850.768C727.109 850.572 726.955 850.208 726.899 849.704H725.499C725.597 851.356 726.647 852.182 728.663 852.182Z" fill="#262626"/>
<path d="M1004.76 849.242C1004.76 848.472 1004.51 847.856 1004.01 847.394C1003.5 846.946 1002.69 846.596 1001.56 846.344L1001.26 846.288V843.124C1001.84 843.208 1002.26 843.404 1002.54 843.698C1002.8 844.006 1002.96 844.426 1003 844.958H1004.48C1004.46 844.09 1004.18 843.376 1003.64 842.83C1003.11 842.284 1002.31 841.948 1001.26 841.836V840.408H1000.27V841.808C999.234 841.85 998.436 842.116 997.862 842.592C997.274 843.082 996.994 843.726 996.994 844.51C996.994 845.336 997.246 845.98 997.778 846.442C998.296 846.918 999.066 847.254 1000.1 847.45L1000.27 847.492V850.908C998.912 850.768 998.226 850.026 998.198 848.71H996.7C996.7 849.774 997.022 850.6 997.638 851.188C998.254 851.776 999.136 852.112 1000.27 852.196V853.624H1001.26V852.21C1002.36 852.154 1003.22 851.874 1003.84 851.342C1004.46 850.824 1004.76 850.124 1004.76 849.242ZM998.968 843.502C999.262 843.264 999.696 843.124 1000.27 843.096V846.064C999.598 845.896 999.136 845.7 998.898 845.448C998.646 845.21 998.52 844.888 998.52 844.482C998.52 844.076 998.66 843.754 998.968 843.502ZM1001.26 847.702C1001.98 847.884 1002.48 848.094 1002.78 848.318C1003.06 848.556 1003.21 848.878 1003.21 849.284C1003.21 850.292 1002.55 850.838 1001.26 850.936V847.702ZM1008.1 842.032C1007.96 842.634 1007.72 843.068 1007.36 843.32C1006.99 843.572 1006.46 843.726 1005.75 843.768L1005.52 843.782V844.888H1007.8V852H1009.3V842.032H1008.1ZM1014.59 852.224C1015.83 852.224 1016.76 851.79 1017.41 850.894C1018.05 849.998 1018.37 848.71 1018.37 847.016C1018.37 845.336 1018.05 844.048 1017.41 843.152C1016.76 842.256 1015.83 841.808 1014.59 841.808C1013.36 841.808 1012.42 842.256 1011.78 843.152C1011.14 844.048 1010.81 845.336 1010.81 847.016C1010.81 848.696 1011.14 849.984 1011.78 850.88C1012.42 851.776 1013.36 852.224 1014.59 852.224ZM1014.59 850.922C1013.11 850.922 1012.38 849.62 1012.38 847.016C1012.38 844.412 1013.11 843.11 1014.59 843.11C1016.08 843.11 1016.82 844.412 1016.82 847.016C1016.82 849.62 1016.08 850.922 1014.59 850.922ZM1023.33 852.224C1024.56 852.224 1025.5 851.79 1026.15 850.894C1026.79 849.998 1027.11 848.71 1027.11 847.016C1027.11 845.336 1026.79 844.048 1026.15 843.152C1025.5 842.256 1024.56 841.808 1023.33 841.808C1022.1 841.808 1021.16 842.256 1020.52 843.152C1019.87 844.048 1019.55 845.336 1019.55 847.016C1019.55 848.696 1019.87 849.984 1020.52 850.88C1021.16 851.776 1022.1 852.224 1023.33 852.224ZM1023.33 850.922C1021.85 850.922 1021.12 849.62 1021.12 847.016C1021.12 844.412 1021.85 843.11 1023.33 843.11C1024.82 843.11 1025.56 844.412 1025.56 847.016C1025.56 849.62 1024.82 850.922 1023.33 850.922ZM1035.34 852.21C1036.6 852.21 1037.6 851.874 1038.31 851.188C1039.01 850.502 1039.38 849.536 1039.38 848.276V842.032H1037.88V848.29C1037.88 849.158 1037.65 849.802 1037.22 850.236C1036.79 850.684 1036.16 850.894 1035.34 850.894C1034.52 850.894 1033.89 850.684 1033.45 850.236C1033.02 849.802 1032.81 849.158 1032.81 848.29V842.032H1031.31V848.276C1031.31 849.536 1031.66 850.502 1032.38 851.188C1033.08 851.874 1034.07 852.21 1035.34 852.21ZM1044.68 852.224C1045.88 852.224 1046.83 851.958 1047.52 851.426C1048.2 850.894 1048.55 850.166 1048.55 849.242C1048.55 848.472 1048.3 847.856 1047.8 847.394C1047.29 846.946 1046.48 846.596 1045.35 846.344L1044.48 846.162C1043.64 845.994 1043.08 845.77 1042.77 845.518C1042.46 845.294 1042.31 844.944 1042.31 844.482C1042.31 844.034 1042.48 843.698 1042.83 843.446C1043.16 843.208 1043.67 843.082 1044.33 843.082C1045.17 843.082 1045.77 843.236 1046.15 843.544C1046.52 843.852 1046.73 844.314 1046.79 844.958H1048.27C1048.25 843.978 1047.91 843.208 1047.25 842.648C1046.59 842.088 1045.61 841.808 1044.31 841.808C1043.22 841.808 1042.37 842.06 1041.74 842.55C1041.09 843.04 1040.78 843.698 1040.78 844.51C1040.78 845.336 1041.04 845.98 1041.57 846.442C1042.09 846.918 1042.86 847.254 1043.89 847.45L1044.75 847.632C1045.59 847.828 1046.17 848.038 1046.51 848.276C1046.83 848.514 1047 848.85 1047 849.284C1047 849.83 1046.79 850.25 1046.4 850.53C1046.01 850.81 1045.43 850.95 1044.7 850.95C1042.91 850.95 1042.02 850.208 1041.99 848.71H1040.49C1040.49 849.858 1040.87 850.74 1041.6 851.328C1042.32 851.93 1043.36 852.224 1044.68 852.224ZM1049.74 842.032V852H1053.3C1054.84 852 1056.04 851.566 1056.94 850.67C1057.81 849.788 1058.24 848.57 1058.24 847.016C1058.24 845.476 1057.81 844.258 1056.94 843.362C1056.04 842.48 1054.84 842.032 1053.3 842.032H1049.74ZM1051.24 850.684V843.348H1053.29C1054.38 843.348 1055.2 843.67 1055.79 844.3C1056.38 844.944 1056.67 845.84 1056.67 847.016C1056.67 848.192 1056.38 849.102 1055.79 849.732C1055.2 850.376 1054.38 850.684 1053.29 850.684H1051.24Z" fill="#262626"/>
<mask id="path-68-inside-2_839_2986" fill="white">
<path d="M660 861H1074V965H660V861Z"/>
</mask>
<path d="M660 861H1074V965H660V861Z" fill="white"/>
<path d="M660 862H1074V860H660V862Z" fill="#EFEFF0" mask="url(#path-68-inside-2_839_2986)"/>
<path d="M712 895L714.29 897.29L709.41 902.17L705.41 898.17L698 905.59L699.41 907L705.41 901L709.41 905L715.71 898.71L718 901V895H712Z" fill="#858585"/>
<path d="M694.259 932H693.251V923.456H694.259V932ZM698.613 925.664C699.297 925.664 699.837 925.856 700.221 926.228C700.605 926.612 700.797 927.14 700.797 927.812V932H699.837V927.908C699.837 926.996 699.357 926.528 698.421 926.528C697.965 926.528 697.569 926.696 697.233 927.032C696.885 927.368 696.717 927.86 696.717 928.496V932H695.757V925.808H696.669V926.732C697.137 926.024 697.785 925.664 698.613 925.664ZM705.089 928.556L706.109 925.808H707.141L704.705 932H703.697L701.273 925.808H702.317L703.337 928.568C703.841 929.924 704.129 930.728 704.213 930.968C704.357 930.548 704.645 929.744 705.089 928.556ZM712.958 928.904V929.24H708.254C708.302 929.912 708.482 930.428 708.818 930.764C709.142 931.1 709.586 931.268 710.162 931.268C711.014 931.268 711.566 930.884 711.806 930.116H712.802C712.634 930.74 712.322 931.244 711.866 931.604C711.41 931.964 710.834 932.144 710.138 932.144C709.274 932.144 708.59 931.856 708.062 931.268C707.522 930.692 707.258 929.9 707.258 928.904C707.258 927.932 707.522 927.152 708.05 926.552C708.566 925.964 709.25 925.664 710.114 925.664C711.002 925.664 711.698 925.976 712.202 926.588C712.706 927.212 712.958 927.98 712.958 928.904ZM710.114 926.54C709.61 926.54 709.19 926.708 708.878 927.02C708.554 927.332 708.35 927.788 708.278 928.376H711.926C711.878 927.836 711.686 927.392 711.374 927.056C711.05 926.72 710.63 926.54 710.114 926.54ZM716.222 932.144C714.566 932.144 713.69 931.448 713.594 930.032H714.566C714.614 930.5 714.77 930.836 715.022 931.028C715.274 931.22 715.67 931.316 716.222 931.316C717.206 931.316 717.71 931.004 717.71 930.356C717.71 930.08 717.602 929.864 717.398 929.72C717.194 929.576 716.822 929.456 716.294 929.348L715.718 929.24C714.422 929 713.786 928.4 713.786 927.416C713.786 926.888 713.978 926.456 714.386 926.144C714.794 925.832 715.346 925.664 716.042 925.664C717.674 925.664 718.514 926.348 718.562 927.716H717.602C717.578 927.272 717.434 926.96 717.194 926.768C716.942 926.588 716.558 926.492 716.042 926.492C715.622 926.492 715.298 926.576 715.082 926.732C714.854 926.9 714.746 927.116 714.746 927.404C714.746 927.68 714.842 927.884 715.034 928.016C715.226 928.16 715.538 928.268 715.994 928.364L716.546 928.472C717.302 928.628 717.842 928.844 718.178 929.12C718.514 929.408 718.682 929.792 718.682 930.296C718.682 930.884 718.454 931.34 718.022 931.664C717.59 931.988 716.99 932.144 716.222 932.144ZM722.235 925.808V926.648H720.963V930.668C720.963 931.028 721.191 931.196 721.671 931.196H722.235V932C721.971 932.024 721.743 932.036 721.551 932.036C720.519 932.036 720.003 931.616 720.003 930.752V926.648H718.983V925.808H720.003V924.056H720.963V925.808H722.235Z" fill="#858585"/>
<path d="M789.754 903.255H788.964L788.684 902.985C789.664 901.845 790.254 900.365 790.254 898.755C790.254 895.165 787.344 892.255 783.754 892.255C780.164 892.255 777.254 895.165 777.254 898.755C777.254 902.345 780.164 905.255 783.754 905.255C785.364 905.255 786.844 904.665 787.984 903.685L788.254 903.965V904.755L793.254 909.745L794.744 908.255L789.754 903.255ZM783.754 903.255C781.264 903.255 779.254 901.245 779.254 898.755C779.254 896.265 781.264 894.255 783.754 894.255C786.244 894.255 788.254 896.265 788.254 898.755C788.254 901.245 786.244 903.255 783.754 903.255Z" fill="#858585"/>
<path d="M764.069 923.456H766.949C768.245 923.456 769.265 923.84 770.021 924.584C770.765 925.34 771.137 926.384 771.137 927.728C771.137 929.06 770.765 930.104 770.021 930.86C769.253 931.628 768.233 932 766.949 932H764.069V923.456ZM765.077 931.088H766.949C767.957 931.088 768.725 930.8 769.265 930.2C769.805 929.612 770.081 928.784 770.081 927.728C770.081 926.672 769.805 925.856 769.265 925.256C768.725 924.668 767.957 924.368 766.949 924.368H765.077V931.088ZM773.267 924.872H772.247V923.696H773.267V924.872ZM773.243 932H772.283V925.808H773.243V932ZM776.869 932.144C775.213 932.144 774.337 931.448 774.241 930.032H775.213C775.261 930.5 775.417 930.836 775.669 931.028C775.921 931.22 776.317 931.316 776.869 931.316C777.853 931.316 778.357 931.004 778.357 930.356C778.357 930.08 778.249 929.864 778.045 929.72C777.841 929.576 777.469 929.456 776.941 929.348L776.365 929.24C775.069 929 774.433 928.4 774.433 927.416C774.433 926.888 774.625 926.456 775.033 926.144C775.441 925.832 775.993 925.664 776.689 925.664C778.321 925.664 779.161 926.348 779.209 927.716H778.249C778.225 927.272 778.081 926.96 777.841 926.768C777.589 926.588 777.205 926.492 776.689 926.492C776.269 926.492 775.945 926.576 775.729 926.732C775.501 926.9 775.393 927.116 775.393 927.404C775.393 927.68 775.489 927.884 775.681 928.016C775.873 928.16 776.185 928.268 776.641 928.364L777.193 928.472C777.949 928.628 778.489 928.844 778.825 929.12C779.161 929.408 779.329 929.792 779.329 930.296C779.329 930.884 779.101 931.34 778.669 931.664C778.237 931.988 777.637 932.144 776.869 932.144ZM782.854 932.144C781.99 932.144 781.306 931.856 780.778 931.256C780.25 930.668 779.986 929.888 779.986 928.904C779.986 927.92 780.25 927.128 780.778 926.54C781.282 925.964 781.978 925.664 782.854 925.664C783.586 925.664 784.186 925.868 784.666 926.264C785.134 926.672 785.422 927.212 785.518 927.908H784.522C784.45 927.476 784.258 927.128 783.946 926.888C783.634 926.648 783.274 926.528 782.854 926.528C782.278 926.528 781.834 926.744 781.498 927.152C781.162 927.56 780.994 928.148 780.994 928.904C780.994 929.66 781.162 930.248 781.498 930.656C781.834 931.076 782.29 931.28 782.854 931.28C783.274 931.28 783.646 931.16 783.958 930.908C784.27 930.668 784.462 930.32 784.534 929.876H785.518C785.41 930.572 785.11 931.124 784.63 931.532C784.15 931.94 783.55 932.144 782.854 932.144ZM791.404 931.256C790.828 931.856 790.108 932.144 789.244 932.144C788.368 932.144 787.648 931.856 787.084 931.256C786.52 930.68 786.244 929.888 786.244 928.904C786.244 927.92 786.52 927.14 787.084 926.552C787.648 925.964 788.368 925.664 789.244 925.664C790.108 925.664 790.828 925.964 791.404 926.552C791.956 927.14 792.244 927.92 792.244 928.904C792.244 929.888 791.956 930.68 791.404 931.256ZM787.792 930.644C788.152 931.076 788.632 931.28 789.244 931.28C789.844 931.28 790.336 931.076 790.696 930.644C791.056 930.236 791.236 929.648 791.236 928.904C791.236 928.16 791.056 927.572 790.696 927.152C790.336 926.744 789.844 926.528 789.244 926.528C788.632 926.528 788.152 926.744 787.792 927.152C787.432 927.572 787.252 928.16 787.252 928.904C787.252 929.648 787.432 930.236 787.792 930.644ZM796.181 928.556L797.201 925.808H798.233L795.797 932H794.789L792.365 925.808H793.409L794.429 928.568C794.933 929.924 795.221 930.728 795.305 930.968C795.449 930.548 795.737 929.744 796.181 928.556ZM804.05 928.904V929.24H799.346C799.394 929.912 799.574 930.428 799.91 930.764C800.234 931.1 800.678 931.268 801.254 931.268C802.106 931.268 802.658 930.884 802.898 930.116H803.894C803.726 930.74 803.414 931.244 802.958 931.604C802.502 931.964 801.926 932.144 801.23 932.144C800.366 932.144 799.682 931.856 799.154 931.268C798.614 930.692 798.35 929.9 798.35 928.904C798.35 927.932 798.614 927.152 799.142 926.552C799.658 925.964 800.342 925.664 801.206 925.664C802.094 925.664 802.79 925.976 803.294 926.588C803.798 927.212 804.05 927.98 804.05 928.904ZM801.206 926.54C800.702 926.54 800.282 926.708 799.97 927.02C799.646 927.332 799.442 927.788 799.37 928.376H803.018C802.97 927.836 802.778 927.392 802.466 927.056C802.142 926.72 801.722 926.54 801.206 926.54ZM808.093 925.712C808.249 925.712 808.357 925.724 808.417 925.724V926.648H808.177C807.529 926.648 807.037 926.816 806.677 927.128C806.317 927.44 806.149 927.896 806.149 928.472V932H805.189V925.808H806.101V926.9C806.509 926.108 807.181 925.712 808.093 925.712Z" fill="#858585"/>
<path d="M875 906.01V899H873V906.01H870L874 910L878 906.01H875ZM868 892L864 895.99H867V903H869V895.99H872L868 892ZM875 906.01V899H873V906.01H870L874 910L878 906.01H875ZM868 892L864 895.99H867V903H869V895.99H872L868 892Z" fill="#262626"/>
<path d="M849.517 923.456H856.369V924.368H853.465V932H852.421V924.368H849.517V923.456ZM859.159 925.712C859.315 925.712 859.423 925.724 859.483 925.724V926.648H859.243C858.595 926.648 858.103 926.816 857.743 927.128C857.383 927.44 857.215 927.896 857.215 928.472V932H856.255V925.808H857.167V926.9C857.575 926.108 858.247 925.712 859.159 925.712ZM865.022 931.22H865.37V932C865.202 932.024 865.034 932.036 864.842 932.036C864.194 932.036 863.846 931.748 863.798 931.148C863.366 931.82 862.694 932.144 861.782 932.144C861.098 932.144 860.558 931.988 860.174 931.676C859.79 931.364 859.598 930.908 859.598 930.332C859.598 929.216 860.354 928.58 861.89 928.412L862.778 928.316C863.426 928.244 863.75 927.968 863.75 927.464C863.75 927.128 863.642 926.876 863.426 926.72C863.21 926.576 862.862 926.492 862.358 926.492C861.818 926.492 861.434 926.588 861.194 926.768C860.954 926.948 860.822 927.26 860.798 927.716H859.838C859.91 926.348 860.75 925.664 862.358 925.664C863.906 925.664 864.686 926.264 864.686 927.464V930.92C864.686 931.124 864.794 931.22 865.022 931.22ZM861.83 931.328C862.334 931.328 862.79 931.172 863.174 930.86C863.558 930.56 863.75 930.128 863.75 929.552V928.82C863.57 928.964 863.294 929.048 862.934 929.084L862.034 929.192C861.506 929.264 861.134 929.384 860.918 929.552C860.702 929.732 860.594 929.984 860.594 930.308C860.594 930.632 860.69 930.884 860.906 931.064C861.11 931.244 861.422 931.328 861.83 931.328ZM869.072 925.664C869.756 925.664 870.296 925.856 870.68 926.228C871.064 926.612 871.256 927.14 871.256 927.812V932H870.296V927.908C870.296 926.996 869.816 926.528 868.88 926.528C868.424 926.528 868.028 926.696 867.692 927.032C867.344 927.368 867.176 927.86 867.176 928.496V932H866.216V925.808H867.128V926.732C867.596 926.024 868.244 925.664 869.072 925.664ZM874.881 932.144C873.225 932.144 872.349 931.448 872.253 930.032H873.225C873.273 930.5 873.429 930.836 873.681 931.028C873.933 931.22 874.329 931.316 874.881 931.316C875.865 931.316 876.369 931.004 876.369 930.356C876.369 930.08 876.261 929.864 876.057 929.72C875.853 929.576 875.481 929.456 874.953 929.348L874.377 929.24C873.081 929 872.445 928.4 872.445 927.416C872.445 926.888 872.637 926.456 873.045 926.144C873.453 925.832 874.005 925.664 874.701 925.664C876.333 925.664 877.173 926.348 877.221 927.716H876.261C876.237 927.272 876.093 926.96 875.853 926.768C875.601 926.588 875.217 926.492 874.701 926.492C874.281 926.492 873.957 926.576 873.741 926.732C873.513 926.9 873.405 927.116 873.405 927.404C873.405 927.68 873.501 927.884 873.693 928.016C873.885 928.16 874.197 928.268 874.653 928.364L875.205 928.472C875.961 928.628 876.501 928.844 876.837 929.12C877.173 929.408 877.341 929.792 877.341 930.296C877.341 930.884 877.113 931.34 876.681 931.664C876.249 931.988 875.649 932.144 874.881 932.144ZM881.118 924.272H880.566C880.014 924.272 879.738 924.572 879.738 925.148V925.808H881.058V926.648H879.738V932H878.778V926.648H877.758V925.808H878.778V925.172C878.778 924.02 879.354 923.432 880.506 923.432C880.65 923.432 880.854 923.444 881.118 923.456V924.272ZM887.061 928.904V929.24H882.357C882.405 929.912 882.585 930.428 882.921 930.764C883.245 931.1 883.689 931.268 884.265 931.268C885.117 931.268 885.669 930.884 885.909 930.116H886.905C886.737 930.74 886.425 931.244 885.969 931.604C885.513 931.964 884.937 932.144 884.241 932.144C883.377 932.144 882.693 931.856 882.165 931.268C881.625 930.692 881.361 929.9 881.361 928.904C881.361 927.932 881.625 927.152 882.153 926.552C882.669 925.964 883.353 925.664 884.217 925.664C885.105 925.664 885.801 925.976 886.305 926.588C886.809 927.212 887.061 927.98 887.061 928.904ZM884.217 926.54C883.713 926.54 883.293 926.708 882.981 927.02C882.657 927.332 882.453 927.788 882.381 928.376H886.029C885.981 927.836 885.789 927.392 885.477 927.056C885.153 926.72 884.733 926.54 884.217 926.54ZM891.104 925.712C891.26 925.712 891.368 925.724 891.428 925.724V926.648H891.188C890.54 926.648 890.048 926.816 889.688 927.128C889.328 927.44 889.16 927.896 889.16 928.472V932H888.2V925.808H889.112V926.9C889.52 926.108 890.192 925.712 891.104 925.712Z" fill="#262626"/>
<path d="M1012 907H1030V905H1012V907ZM1012 902H1030V900H1012V902ZM1012 895V897H1030V895H1012Z" fill="#858585"/>
<path d="M1003.27 932.192C1002.16 932.192 1001.29 931.94 1000.67 931.436C1000.04 930.932 999.719 930.188 999.719 929.18H1000.76C1000.79 930.584 1001.62 931.28 1003.27 931.28C1003.97 931.28 1004.5 931.148 1004.87 930.872C1005.24 930.608 1005.43 930.212 1005.43 929.684C1005.43 929.276 1005.28 928.964 1004.96 928.736C1004.65 928.508 1004.12 928.304 1003.36 928.136L1002.6 927.968C1001.74 927.776 1001.09 927.488 1000.66 927.104C1000.22 926.72 1000.01 926.192 1000.01 925.496C1000.01 924.824 1000.27 924.284 1000.8 923.876C1001.33 923.468 1002.04 923.264 1002.92 923.264C1003.52 923.264 1004.04 923.336 1004.48 923.48C1004.93 923.624 1005.28 923.828 1005.53 924.092C1005.77 924.356 1005.95 924.632 1006.07 924.932C1006.19 925.244 1006.25 925.58 1006.26 925.94H1005.23C1005.18 925.34 1004.98 924.896 1004.63 924.608C1004.28 924.32 1003.72 924.176 1002.92 924.176C1002.32 924.176 1001.86 924.296 1001.53 924.524C1001.21 924.764 1001.05 925.088 1001.05 925.496C1001.05 925.916 1001.18 926.24 1001.47 926.468C1001.74 926.708 1002.26 926.912 1003.06 927.08L1003.81 927.248C1004.75 927.464 1005.43 927.764 1005.85 928.148C1006.26 928.532 1006.48 929.048 1006.48 929.684C1006.48 930.464 1006.19 931.076 1005.62 931.52C1005.05 931.976 1004.27 932.192 1003.27 932.192ZM1013.07 928.904V929.24H1008.37C1008.42 929.912 1008.6 930.428 1008.93 930.764C1009.26 931.1 1009.7 931.268 1010.28 931.268C1011.13 931.268 1011.68 930.884 1011.92 930.116H1012.92C1012.75 930.74 1012.44 931.244 1011.98 931.604C1011.53 931.964 1010.95 932.144 1010.25 932.144C1009.39 932.144 1008.71 931.856 1008.18 931.268C1007.64 930.692 1007.37 929.9 1007.37 928.904C1007.37 927.932 1007.64 927.152 1008.17 926.552C1008.68 925.964 1009.37 925.664 1010.23 925.664C1011.12 925.664 1011.81 925.976 1012.32 926.588C1012.82 927.212 1013.07 927.98 1013.07 928.904ZM1010.23 926.54C1009.73 926.54 1009.31 926.708 1008.99 927.02C1008.67 927.332 1008.47 927.788 1008.39 928.376H1012.04C1011.99 927.836 1011.8 927.392 1011.49 927.056C1011.17 926.72 1010.75 926.54 1010.23 926.54ZM1016.56 925.808V926.648H1015.29V930.668C1015.29 931.028 1015.52 931.196 1016 931.196H1016.56V932C1016.3 932.024 1016.07 932.036 1015.88 932.036C1014.84 932.036 1014.33 931.616 1014.33 930.752V926.648H1013.31V925.808H1014.33V924.056H1015.29V925.808H1016.56ZM1019.81 925.808V926.648H1018.54V930.668C1018.54 931.028 1018.76 931.196 1019.24 931.196H1019.81V932C1019.54 932.024 1019.32 932.036 1019.12 932.036C1018.09 932.036 1017.58 931.616 1017.58 930.752V926.648H1016.56V925.808H1017.58V924.056H1018.54V925.808H1019.81ZM1021.81 924.872H1020.79V923.696H1021.81V924.872ZM1021.78 932H1020.82V925.808H1021.78V932ZM1026.08 925.664C1026.76 925.664 1027.3 925.856 1027.69 926.228C1028.07 926.612 1028.26 927.14 1028.26 927.812V932H1027.3V927.908C1027.3 926.996 1026.82 926.528 1025.89 926.528C1025.43 926.528 1025.04 926.696 1024.7 927.032C1024.35 927.368 1024.18 927.86 1024.18 928.496V932H1023.22V925.808H1024.14V926.732C1024.6 926.024 1025.25 925.664 1026.08 925.664ZM1034.41 926.708V925.808H1035.32V931.76C1035.32 932.612 1035.07 933.284 1034.58 933.764C1034.07 934.256 1033.36 934.496 1032.44 934.496C1031.67 934.496 1031.05 934.328 1030.59 933.968C1030.12 933.62 1029.86 933.128 1029.8 932.504H1030.76C1030.88 933.296 1031.43 933.68 1032.44 933.68C1033.71 933.68 1034.36 933.044 1034.36 931.76V931.16C1033.87 931.82 1033.17 932.144 1032.28 932.144C1031.41 932.144 1030.71 931.856 1030.2 931.256C1029.67 930.668 1029.4 929.888 1029.4 928.904C1029.4 927.92 1029.67 927.128 1030.2 926.54C1030.7 925.964 1031.4 925.664 1032.28 925.664C1033.2 925.664 1033.9 926.012 1034.41 926.708ZM1032.4 931.28C1033 931.28 1033.5 931.076 1033.86 930.644C1034.22 930.224 1034.4 929.648 1034.4 928.904C1034.4 928.172 1034.22 927.596 1033.86 927.164C1033.5 926.744 1033 926.528 1032.4 926.528C1031.8 926.528 1031.31 926.744 1030.95 927.176C1030.59 927.608 1030.41 928.184 1030.41 928.904C1030.41 929.624 1030.59 930.2 1030.95 930.632C1031.31 931.064 1031.8 931.28 1032.4 931.28ZM1038.94 932.144C1037.29 932.144 1036.41 931.448 1036.32 930.032H1037.29C1037.34 930.5 1037.49 930.836 1037.74 931.028C1038 931.22 1038.39 931.316 1038.94 931.316C1039.93 931.316 1040.43 931.004 1040.43 930.356C1040.43 930.08 1040.32 929.864 1040.12 929.72C1039.92 929.576 1039.54 929.456 1039.02 929.348L1038.44 929.24C1037.14 929 1036.51 928.4 1036.51 927.416C1036.51 926.888 1036.7 926.456 1037.11 926.144C1037.52 925.832 1038.07 925.664 1038.76 925.664C1040.4 925.664 1041.24 926.348 1041.28 927.716H1040.32C1040.3 927.272 1040.16 926.96 1039.92 926.768C1039.66 926.588 1039.28 926.492 1038.76 926.492C1038.34 926.492 1038.02 926.576 1037.8 926.732C1037.58 926.9 1037.47 927.116 1037.47 927.404C1037.47 927.68 1037.56 927.884 1037.76 928.016C1037.95 928.16 1038.26 928.268 1038.72 928.364L1039.27 928.472C1040.02 928.628 1040.56 928.844 1040.9 929.12C1041.24 929.408 1041.4 929.792 1041.4 930.296C1041.4 930.884 1041.18 931.34 1040.74 931.664C1040.31 931.988 1039.71 932.144 1038.94 932.144Z" fill="#858585"/>
<path d="M953 903V895C953 893.9 952.1 893 951 893H937C935.9 893 935 893.9 935 895V903C935 904.1 935.9 905 937 905H951C952.1 905 953 904.1 953 903ZM951 903H937V895H951V903ZM944 896C942.34 896 941 897.34 941 899C941 900.66 942.34 902 944 902C945.66 902 947 900.66 947 899C947 897.34 945.66 896 944 896ZM957 896V907C957 908.1 956.1 909 955 909H938C938 908 938 908.1 938 907H955V896C956.1 896 956 896 957 896Z" fill="#858585"/>
<path d="M936.491 932.192C935.327 932.192 934.379 931.796 933.647 930.98C932.903 930.176 932.543 929.096 932.543 927.728C932.543 926.372 932.903 925.292 933.647 924.476C934.379 923.672 935.327 923.264 936.491 923.264C937.403 923.264 938.195 923.516 938.843 924.02C939.491 924.524 939.911 925.244 940.127 926.204H939.107C938.747 924.86 937.871 924.188 936.491 924.188C935.615 924.188 934.919 924.5 934.391 925.124C933.863 925.76 933.599 926.624 933.599 927.728C933.599 928.832 933.863 929.696 934.391 930.32C934.919 930.956 935.615 931.268 936.491 931.268C937.139 931.268 937.727 931.064 938.243 930.656C938.747 930.272 939.047 929.684 939.167 928.892H940.175C940.055 929.96 939.659 930.776 938.963 931.328C938.255 931.904 937.427 932.192 936.491 932.192ZM946.321 931.22H946.669V932C946.501 932.024 946.333 932.036 946.141 932.036C945.493 932.036 945.145 931.748 945.097 931.148C944.665 931.82 943.993 932.144 943.081 932.144C942.397 932.144 941.857 931.988 941.473 931.676C941.089 931.364 940.897 930.908 940.897 930.332C940.897 929.216 941.653 928.58 943.189 928.412L944.077 928.316C944.725 928.244 945.049 927.968 945.049 927.464C945.049 927.128 944.941 926.876 944.725 926.72C944.509 926.576 944.161 926.492 943.657 926.492C943.117 926.492 942.733 926.588 942.493 926.768C942.253 926.948 942.121 927.26 942.097 927.716H941.137C941.209 926.348 942.049 925.664 943.657 925.664C945.205 925.664 945.985 926.264 945.985 927.464V930.92C945.985 931.124 946.093 931.22 946.321 931.22ZM943.129 931.328C943.633 931.328 944.089 931.172 944.473 930.86C944.857 930.56 945.049 930.128 945.049 929.552V928.82C944.869 928.964 944.593 929.048 944.233 929.084L943.333 929.192C942.805 929.264 942.433 929.384 942.217 929.552C942.001 929.732 941.893 929.984 941.893 930.308C941.893 930.632 941.989 930.884 942.205 931.064C942.409 931.244 942.721 931.328 943.129 931.328ZM949.699 932.144C948.043 932.144 947.167 931.448 947.071 930.032H948.043C948.091 930.5 948.247 930.836 948.499 931.028C948.751 931.22 949.147 931.316 949.699 931.316C950.683 931.316 951.187 931.004 951.187 930.356C951.187 930.08 951.079 929.864 950.875 929.72C950.671 929.576 950.299 929.456 949.771 929.348L949.195 929.24C947.899 929 947.263 928.4 947.263 927.416C947.263 926.888 947.455 926.456 947.863 926.144C948.271 925.832 948.823 925.664 949.519 925.664C951.151 925.664 951.991 926.348 952.039 927.716H951.079C951.055 927.272 950.911 926.96 950.671 926.768C950.419 926.588 950.035 926.492 949.519 926.492C949.099 926.492 948.775 926.576 948.559 926.732C948.331 926.9 948.223 927.116 948.223 927.404C948.223 927.68 948.319 927.884 948.511 928.016C948.703 928.16 949.015 928.268 949.471 928.364L950.023 928.472C950.779 928.628 951.319 928.844 951.655 929.12C951.991 929.408 952.159 929.792 952.159 930.296C952.159 930.884 951.931 931.34 951.499 931.664C951.067 931.988 950.467 932.144 949.699 932.144ZM955.972 925.664C956.656 925.664 957.196 925.856 957.58 926.228C957.964 926.612 958.156 927.14 958.156 927.812V932H957.196V927.908C957.196 926.996 956.716 926.528 955.78 926.528C955.324 926.528 954.928 926.696 954.592 927.032C954.244 927.368 954.076 927.86 954.076 928.496V932H953.116V923.456H954.076V926.66C954.544 926 955.18 925.664 955.972 925.664Z" fill="#858585"/>
<line x1="846" y1="860.5" x2="892" y2="860.5" stroke="black"/>
<path d="M827.146 463.354C827.342 463.549 827.658 463.549 827.854 463.354L831.036 460.172C831.231 459.976 831.231 459.66 831.036 459.464C830.84 459.269 830.524 459.269 830.328 459.464L827.5 462.293L824.672 459.464C824.476 459.269 824.16 459.269 823.964 459.464C823.769 459.66 823.769 459.976 823.964 460.172L827.146 463.354ZM827 424L827 463L828 463L828 424L827 424Z" fill="#AD8634"/>
</g>
<rect x="657" y="67" width="420" height="900" rx="42" stroke="#262626" stroke-width="4"/>
<line y1="-0.5" x2="617.003" y2="-0.5" transform="matrix(1 0 -0.000604595 1 123 24.791)" stroke="#AD8634"/>
<line x1="123.5" y1="24" x2="123.5" y2="176" stroke="#AD8634"/>
<path d="M740.146 176.354C740.342 176.549 740.658 176.549 740.854 176.354L744.036 173.172C744.231 172.976 744.231 172.66 744.036 172.464C743.84 172.269 743.524 172.269 743.328 172.464L740.5 175.293L737.672 172.464C737.476 172.269 737.16 172.269 736.964 172.464C736.769 172.66 736.769 172.976 736.964 173.172L740.146 176.354ZM740 24L740 176L741 176L741 24L740 24Z" fill="#AD8634"/>
<path d="M740.354 677.854C740.549 677.658 740.549 677.342 740.354 677.146L737.172 673.964C736.976 673.769 736.66 673.769 736.464 673.964C736.269 674.16 736.269 674.476 736.464 674.672L739.293 677.5L736.464 680.328C736.269 680.524 736.269 680.84 736.464 681.035C736.66 681.231 736.976 681.231 737.172 681.035L740.354 677.854ZM329 678L740 678L740 677L329 677L329 678Z" fill="#AD8634"/>
<path d="M245 424L827 424" stroke="#AD8634"/>
<line x1="240" y1="1019.5" x2="867" y2="1019.5" stroke="#AD8634"/>
<path d="M866.646 951.646C866.842 951.451 867.158 951.451 867.354 951.646L870.536 954.828C870.731 955.024 870.731 955.34 870.536 955.536C870.34 955.731 870.024 955.731 869.828 955.536L867 952.707L864.172 955.536C863.976 955.731 863.66 955.731 863.464 955.536C863.269 955.34 863.269 955.024 863.464 954.828L866.646 951.646ZM867.5 952L867.5 1020L866.5 1020L866.5 952L867.5 952Z" fill="#AD8634"/>
<path d="M668.354 805.354C668.549 805.158 668.549 804.842 668.354 804.646L665.172 801.464C664.976 801.269 664.66 801.269 664.464 801.464C664.269 801.66 664.269 801.976 664.464 802.172L667.293 805L664.464 807.828C664.269 808.024 664.269 808.34 664.464 808.535C664.66 808.731 664.976 808.731 665.172 808.535L668.354 805.354ZM191 805.5L668 805.5L668 804.5L191 804.5L191 805.5Z" fill="#AD8634"/>
<line x1="239.5" y1="1020" x2="239.5" y2="952" stroke="#AD8634"/>
<defs>
<linearGradient id="paint0_linear_839_2986" x1="280.491" y1="380" x2="281.485" y2="742" gradientUnits="userSpaceOnUse">
<stop offset="0.0551315" stop-color="#505050"/>
<stop offset="0.743457" stop-color="#C3C3C3" stop-opacity="0"/>
</linearGradient>
<linearGradient id="paint1_linear_839_2986" x1="907.491" y1="348" x2="893.487" y2="741.5" gradientUnits="userSpaceOnUse">
<stop offset="0.0896889" stop-color="#224AFA" stop-opacity="0.83"/>
<stop offset="0.632332" stop-color="#224AFA" stop-opacity="0"/>
</linearGradient>
<clipPath id="clip0_839_2986">
<rect x="32" y="69" width="416" height="896" rx="40" fill="white"/>
</clipPath>
<clipPath id="clip1_839_2986">
<rect x="659" y="69" width="416" height="896" rx="40" fill="white"/>
</clipPath>
</defs>
</svg>
