<svg width="600" height="600" viewBox="0 0 600 600" fill="none" xmlns="http://www.w3.org/2000/svg">
<path d="M110.273 35H490.755V565H110.273V35Z" fill="#EEEEEE"/>
<path fill-rule="evenodd" clip-rule="evenodd" d="M105.273 30H495.755V570H105.273V30ZM115.273 40V560H485.755V40H115.273Z" fill="#05060F"/>
<path fill-rule="evenodd" clip-rule="evenodd" d="M309.975 258.605C301.312 262.491 293.403 266.912 285.248 271.471C282.587 272.958 279.899 274.46 277.151 275.963C276.723 276.198 276.286 276.438 275.843 276.682C272.838 278.336 269.497 280.174 265.953 281.673C265.958 281.671 265.977 281.663 265.711 281.788C265.539 281.869 265.208 282.025 264.836 282.164C264.556 282.268 263.781 282.551 262.819 282.582C261.82 282.615 259.219 282.328 257.911 279.673C256.536 276.88 257.456 274.268 258.272 272.728C257.023 273.121 255.975 273.459 255.29 273.681C254.913 273.803 254.645 273.889 254.515 273.929C253.032 274.388 245.979 276.535 239.284 278.455C235.946 279.412 232.642 280.328 230.151 280.95C228.926 281.256 227.791 281.518 226.917 281.672C226.521 281.741 225.954 281.83 225.388 281.846C225.174 281.852 224.514 281.869 223.746 281.664C223.369 281.563 222.542 281.302 221.728 280.604C220.751 279.767 219.964 278.424 219.964 276.771C219.964 274.077 220.943 271.646 222.097 269.645C218.679 271.511 214.417 273.773 210.181 275.782C206.14 277.699 201.867 279.514 198.071 280.637C196.176 281.197 194.241 281.633 192.419 281.78C190.688 281.92 188.502 281.85 186.494 280.861C184.67 279.964 183.548 278.406 183.079 276.735C182.667 275.265 182.794 273.874 182.976 272.894C183.34 270.933 184.253 268.934 185.062 267.386C185.92 265.744 186.898 264.17 187.674 262.972C188.067 262.367 188.419 261.842 188.686 261.445C188.717 261.4 188.746 261.357 188.773 261.316C188.869 261.173 188.947 261.058 189.013 260.959C189.091 260.841 189.119 260.799 189.119 260.799C189.119 260.799 189.117 260.801 189.115 260.805C190.555 258.449 193.633 257.707 195.989 259.148C198.345 260.589 199.087 263.666 197.646 266.022C197.443 266.354 197.165 266.767 196.837 267.255C196.137 268.295 195.21 269.672 194.307 271.306C194.602 271.229 194.912 271.143 195.235 271.047C198.297 270.142 202.026 268.582 205.896 266.747C211.659 264.013 217.171 260.952 220.828 258.921C222.124 258.202 223.187 257.612 223.946 257.211C224.039 257.162 224.207 257.071 224.439 256.946C225.785 256.22 229.258 254.346 232.354 252.887C234.074 252.076 236.106 251.183 237.685 250.783C238.104 250.677 238.688 250.552 239.336 250.52C239.795 250.497 241.244 250.449 242.684 251.363C243.527 251.9 244.292 252.725 244.736 253.829C245.158 254.878 245.161 255.851 245.067 256.54C244.899 257.774 244.342 258.693 244.077 259.103C242.845 261.009 241.152 262.895 239.556 264.58C238.798 265.381 238.095 266.104 237.409 266.809C236.619 267.621 235.853 268.409 235.054 269.263C235.54 269.125 236.033 268.984 236.528 268.842C243.14 266.946 250.125 264.82 251.562 264.375C251.562 264.375 251.57 264.373 251.585 264.368L251.649 264.347L252.536 264.061C253.086 263.884 253.821 263.647 254.675 263.377C256.38 262.837 258.579 262.156 260.758 261.531C262.902 260.915 265.159 260.313 266.933 259.966C267.763 259.804 268.781 259.636 269.711 259.628C270.094 259.625 271.025 259.632 272.03 260.011C272.57 260.214 273.467 260.649 274.236 261.568C275.103 262.606 275.499 263.898 275.432 265.161C275.426 265.278 275.417 265.394 275.405 265.508C276.963 264.644 278.524 263.771 280.092 262.894C288.758 258.048 297.639 253.082 307.328 248.84C307.308 248.849 307.316 248.845 307.382 248.812C307.444 248.782 307.555 248.726 307.741 248.633L307.791 248.608C308.092 248.457 308.489 248.258 308.939 248.038C309.882 247.577 311.128 246.991 312.413 246.48C313.615 246.002 315.195 245.447 316.714 245.245C317.448 245.147 318.609 245.066 319.852 245.413C321.278 245.812 322.979 246.858 323.788 248.931C324.866 251.692 324.423 254.365 323.63 256.437C322.853 258.47 321.603 260.313 320.41 261.833C319.196 263.381 317.836 264.847 316.676 266.078C316.501 266.264 316.333 266.442 316.171 266.614C315.952 266.846 315.745 267.065 315.549 267.274C318.804 265.799 323.758 263.594 328.611 261.606C332.503 260.012 336.515 258.481 339.624 257.575C341.107 257.143 342.747 256.742 344.177 256.664C344.809 256.629 346.055 256.608 347.339 257.147C348.057 257.448 348.968 258.001 349.692 258.992C350.45 260.027 350.743 261.186 350.743 262.226C350.743 263.13 350.524 263.867 350.386 264.271C350.231 264.724 350.044 265.129 349.884 265.448C349.734 265.746 349.567 266.048 349.397 266.341C352.176 265.771 354.981 264.971 357.963 264.093C358.258 264.006 358.555 263.918 358.854 263.83C363.725 262.39 369.133 260.791 374.976 260.264C378.296 259.965 380.469 261.556 381.335 262.19C381.415 262.248 381.484 262.298 381.541 262.338C381.891 262.582 381.986 262.619 382.053 262.642C382.105 262.66 382.358 262.745 382.987 262.721C382.981 262.721 383.007 262.721 383.072 262.714C383.136 262.708 383.221 262.699 383.333 262.684C383.559 262.654 383.846 262.61 384.203 262.548C384.92 262.425 385.798 262.253 386.832 262.047C387.083 261.996 387.343 261.944 387.609 261.891C389.485 261.514 391.71 261.067 393.902 260.708C396.363 260.304 399.068 259.959 401.408 259.989C402.568 260.004 403.898 260.111 405.166 260.479C406.371 260.829 408.208 261.619 409.405 263.509C409.576 263.778 409.721 264.008 409.846 264.208C410.207 264.781 410.41 265.104 410.602 265.367C410.698 265.384 410.826 265.403 410.993 265.421C411.703 265.5 412.757 265.538 414.466 265.538C417.228 265.538 419.466 267.776 419.466 270.538C419.466 273.299 417.228 275.538 414.466 275.538C412.725 275.538 411.193 275.505 409.89 275.36C408.57 275.214 407.153 274.922 405.794 274.201C404.364 273.443 403.404 272.428 402.69 271.484C402.348 271.034 402.002 270.51 401.676 270C401.557 269.994 401.426 269.99 401.281 269.988C399.85 269.97 397.852 270.193 395.521 270.576C393.518 270.904 391.48 271.313 389.59 271.693C389.321 271.747 389.054 271.8 388.792 271.853L388.736 271.864C386.891 272.233 384.74 272.662 383.363 272.714C381.65 272.779 380.143 272.563 378.78 272.092C377.431 271.624 376.453 270.981 375.833 270.549C375.656 270.426 375.525 270.335 375.428 270.267C370.766 270.742 366.355 272.043 361.427 273.497C361.215 273.559 361.003 273.622 360.789 273.685C355.596 275.215 349.827 276.869 343.49 277.165C342.366 277.217 340.592 277.121 338.976 276.003C337.055 274.674 336.419 272.677 336.381 271.107C336.364 270.414 336.456 269.766 336.589 269.198C335.254 269.708 333.844 270.269 332.401 270.86C325.847 273.544 319.16 276.613 316.786 277.702C316.397 277.881 316.124 278.006 315.986 278.068C315.93 278.093 311.954 279.865 308.192 281.329C306.368 282.039 304.349 282.775 302.827 283.158C302.43 283.258 301.97 283.359 301.499 283.423C301.135 283.472 300.301 283.57 299.354 283.384C298.864 283.288 297.972 283.047 297.09 282.357C296.072 281.559 295.33 280.358 295.152 278.94C294.996 277.701 295.322 276.717 295.548 276.19C295.786 275.635 296.076 275.211 296.28 274.943C298.525 271.973 300.999 268.997 303.376 266.139C304.314 265.011 305.236 263.902 306.123 262.819C306.931 261.831 307.977 260.725 308.936 259.71C309.092 259.545 309.246 259.382 309.396 259.223C309.591 259.016 309.784 258.81 309.975 258.605ZM192.798 274.788C192.798 274.788 192.799 274.778 192.802 274.755C192.801 274.776 192.798 274.788 192.798 274.788Z" fill="#05060F"/>
<path d="M154.668 96.9961H447.995V224.993H154.668V96.9961Z" fill="white"/>
<path fill-rule="evenodd" clip-rule="evenodd" d="M149.668 91.9961H452.995V229.993H149.668V91.9961ZM159.668 101.996V219.993H442.995V101.996H159.668Z" fill="#05060F"/>
<path fill-rule="evenodd" clip-rule="evenodd" d="M149.668 438.801H452.995V512.799H149.668V438.801ZM159.668 448.801V502.799H442.995V448.801H159.668Z" fill="#05060F"/>
<path fill-rule="evenodd" clip-rule="evenodd" d="M149.668 343.691H452.995V417.69H149.668V343.691ZM159.668 353.691V407.69H442.995V353.691H159.668Z" fill="#05060F"/>
<path d="M159 449H443V503H159V449Z" fill="#FA5050"/>
<path d="M160 353H443V408H160V353Z" fill="#F8DB46"/>
<path d="M465.77 481.402C465.77 491.221 457.81 499.18 447.992 499.18C438.174 499.18 430.215 491.221 430.215 481.402C430.215 471.584 438.174 463.625 447.992 463.625C457.81 463.625 465.77 471.584 465.77 481.402Z" fill="#7657FF"/>
<path fill-rule="evenodd" clip-rule="evenodd" d="M447.992 468.625C440.935 468.625 435.215 474.346 435.215 481.402C435.215 488.459 440.935 494.18 447.992 494.18C455.049 494.18 460.77 488.459 460.77 481.402C460.77 474.346 455.049 468.625 447.992 468.625ZM425.215 481.402C425.215 468.823 435.413 458.625 447.992 458.625C460.572 458.625 470.77 468.823 470.77 481.402C470.77 493.982 460.572 504.18 447.992 504.18C435.413 504.18 425.215 493.982 425.215 481.402Z" fill="#7657FF"/>
<path fill-rule="evenodd" clip-rule="evenodd" d="M526.453 290.907C526.486 293.956 526.521 297.194 526.521 300.679V439.303C526.521 451.317 524.019 460.592 519.535 467.634C515.026 474.714 508.778 479.12 502.044 481.821C490.668 486.384 477.299 486.218 467.867 486.101C466.485 486.084 465.187 486.068 463.992 486.068C461.231 486.068 458.992 483.829 458.992 481.068C458.992 478.307 461.231 476.068 463.992 476.068C465.361 476.068 466.775 476.082 468.224 476.096C477.84 476.188 488.96 476.295 498.321 472.54C503.494 470.464 507.916 467.262 511.1 462.262C514.308 457.224 516.521 449.949 516.521 439.303V300.679C516.521 297.466 516.488 294.303 516.455 291.256C516.41 286.941 516.366 282.858 516.424 279.192C516.524 272.873 516.919 267.013 518.275 262.042C519.662 256.958 522.154 252.448 526.655 249.333C531.058 246.284 536.734 245.027 543.583 245.027V255.027C537.828 255.027 534.443 256.104 532.346 257.555C530.347 258.939 528.899 261.095 527.922 264.675C526.914 268.368 526.521 273.173 526.423 279.35C526.366 282.948 526.408 286.752 526.453 290.907Z" fill="#7657FF"/>
<path d="M561.887 248.541C562.772 249.335 562.772 250.722 561.887 251.517L542.881 268.586C541.593 269.742 539.545 268.829 539.545 267.098L539.545 232.959C539.545 231.228 541.593 230.315 542.881 231.471L561.887 248.541Z" fill="#7657FF"/>
<path d="M137.699 379.184C137.699 389.002 145.658 396.961 155.477 396.961C165.295 396.961 173.254 389.002 173.254 379.184C173.254 369.365 165.295 361.406 155.477 361.406C145.658 361.406 137.699 369.365 137.699 379.184Z" fill="#7657FF"/>
<path fill-rule="evenodd" clip-rule="evenodd" d="M155.477 366.406C162.533 366.406 168.254 372.127 168.254 379.184C168.254 386.24 162.533 391.961 155.477 391.961C148.42 391.961 142.699 386.24 142.699 379.184C142.699 372.127 148.42 366.406 155.477 366.406ZM178.254 379.184C178.254 366.604 168.056 356.406 155.477 356.406C142.897 356.406 132.699 366.604 132.699 379.184C132.699 391.763 142.897 401.961 155.477 401.961C168.056 401.961 178.254 391.763 178.254 379.184Z" fill="#7657FF"/>
<path fill-rule="evenodd" clip-rule="evenodd" d="M73.9645 280.133C73.8809 283.396 73.7992 286.733 73.7992 290.026V347.802C73.7992 359.285 76.5464 367.855 81.6708 373.94C86.7922 380.021 93.7311 382.959 100.78 384.296C107.775 385.623 115.262 385.449 121.97 385.008C124.489 384.842 126.841 384.646 129.041 384.463C132.979 384.135 136.429 383.847 139.477 383.847C142.238 383.847 144.477 381.609 144.477 378.847C144.477 376.086 142.238 373.847 139.477 373.847C136.034 373.847 131.851 374.193 127.603 374.544C125.495 374.719 123.371 374.894 121.314 375.029C114.788 375.459 108.343 375.553 102.644 374.471C96.999 373.4 92.4814 371.253 89.3199 367.498C86.1614 363.748 83.7992 357.731 83.7992 347.802V290.026C83.7992 286.878 83.8774 283.663 83.9612 280.389C83.9657 280.213 83.9702 280.036 83.9748 279.859C84.0539 276.777 84.1343 273.643 84.1486 270.569C84.1787 264.113 83.9245 257.575 82.6406 251.736C81.3522 245.876 78.9298 240.268 74.2748 236.156C69.5561 231.989 63.1787 229.916 55.1117 229.916V239.916C61.4471 239.916 65.2318 241.511 67.655 243.652C70.1418 245.848 71.841 249.186 72.8739 253.884C73.9113 258.601 74.178 264.231 74.1488 270.523C74.1349 273.488 74.057 276.525 73.9772 279.634L73.9645 280.133Z" fill="#7657FF"/>
<path d="M38.9918 238.182C38.1069 237.387 38.1069 236.001 38.9918 235.206L57.998 218.137C59.2856 216.98 61.3344 217.894 61.3344 219.625L61.3344 253.764C61.3344 255.494 59.2856 256.408 57.998 255.252L38.9918 238.182Z" fill="#7657FF"/>
</svg>
